<svg xmlns="http://www.w3.org/2000/svg" viewBox="0 0 800 600" width="800" height="600" role="img" aria-hidden="true"><circle cx="36" cy="36" r="1.5" fill="rgba(233,230,220,0.08)"/><circle cx="74" cy="36" r="1.5" fill="rgba(233,230,220,0.08)"/><circle cx="112" cy="36" r="1.5" fill="rgba(233,230,220,0.08)"/><circle cx="150" cy="36" r="1.5" fill="rgba(233,230,220,0.08)"/><circle cx="188" cy="36" r="1.5" fill="rgba(233,230,220,0.08)"/><circle cx="226" cy="36" r="1.5" fill="rgba(233,230,220,0.08)"/><circle cx="264" cy="36" r="1.5" fill="rgba(233,230,220,0.08)"/><circle cx="302" cy="36" r="1.5" fill="rgba(233,230,220,0.08)"/><circle cx="340" cy="36" r="1.5" fill="rgba(233,230,220,0.08)"/><circle cx="378" cy="36" r="1.5" fill="rgba(233,230,220,0.08)"/><circle cx="416" cy="36" r="1.5" fill="rgba(233,230,220,0.08)"/><circle cx="454" cy="36" r="1.5" fill="rgba(233,230,220,0.08)"/><circle cx="492" cy="36" r="1.5" fill="rgba(233,230,220,0.08)"/><circle cx="530" cy="36" r="1.5" fill="rgba(233,230,220,0.08)"/><circle cx="568" cy="36" r="1.5" fill="rgba(233,230,220,0.08)"/><circle cx="606" cy="36" r="1.5" fill="rgba(233,230,220,0.08)"/><circle cx="644" cy="36" r="1.5" fill="rgba(233,230,220,0.08)"/><circle cx="682" cy="36" r="1.5" fill="rgba(233,230,220,0.08)"/><circle cx="720" cy="36" r="1.5" fill="rgba(233,230,220,0.08)"/><circle cx="758" cy="36" r="1.5" fill="rgba(233,230,220,0.08)"/><circle cx="36" cy="74" r="1.5" fill="rgba(233,230,220,0.08)"/><circle cx="74" cy="74" r="1.5" fill="rgba(233,230,220,0.08)"/><circle cx="112" cy="74" r="1.5" fill="rgba(233,230,220,0.08)"/><circle cx="150" cy="74" r="1.5" fill="rgba(233,230,220,0.08)"/><circle cx="188" cy="74" r="1.5" fill="rgba(233,230,220,0.08)"/><circle cx="226" cy="74" r="1.5" fill="rgba(233,230,220,0.08)"/><circle cx="264" cy="74" r="1.5" fill="rgba(233,230,220,0.08)"/><circle cx="302" cy="74" r="1.5" fill="rgba(233,230,220,0.08)"/><circle cx="340" cy="74" r="1.5" fill="rgba(233,230,220,0.08)"/><circle cx="378" cy="74" r="1.5" fill="rgba(233,230,220,0.08)"/><circle cx="416" cy="74" r="1.5" fill="rgba(233,230,220,0.08)"/><circle cx="454" cy="74" r="1.5" fill="rgba(233,230,220,0.08)"/><circle cx="492" cy="74" r="1.5" fill="rgba(233,230,220,0.08)"/><circle cx="530" cy="74" r="1.5" fill="rgba(233,230,220,0.08)"/><circle cx="568" cy="74" r="1.5" fill="rgba(233,230,220,0.08)"/><circle cx="606" cy="74" r="1.5" fill="rgba(233,230,220,0.08)"/><circle cx="644" cy="74" r="1.5" fill="rgba(233,230,220,0.08)"/><circle cx="682" cy="74" r="1.5" fill="rgba(233,230,220,0.08)"/><circle cx="720" cy="74" r="1.5" fill="rgba(233,230,220,0.08)"/><circle cx="758" cy="74" r="1.5" fill="rgba(233,230,220,0.08)"/><circle cx="36" cy="112" r="1.5" fill="rgba(233,230,220,0.08)"/><circle cx="74" cy="112" r="1.5" fill="rgba(233,230,220,0.08)"/><circle cx="112" cy="112" r="1.5" fill="rgba(233,230,220,0.08)"/><circle cx="150" cy="112" r="1.5" fill="rgba(233,230,220,0.08)"/><circle cx="188" cy="112" r="1.5" fill="rgba(233,230,220,0.08)"/><circle cx="226" cy="112" r="1.5" fill="rgba(233,230,220,0.08)"/><circle cx="264" cy="112" r="1.5" fill="rgba(233,230,220,0.08)"/><circle cx="302" cy="112" r="1.5" fill="rgba(233,230,220,0.08)"/><circle cx="340" cy="112" r="1.5" fill="rgba(233,230,220,0.08)"/><circle cx="378" cy="112" r="1.5" fill="rgba(233,230,220,0.08)"/><circle cx="416" cy="112" r="1.5" fill="rgba(233,230,220,0.08)"/><circle cx="454" cy="112" r="1.5" fill="rgba(233,230,220,0.08)"/><circle cx="492" cy="112" r="1.5" fill="rgba(233,230,220,0.08)"/><circle cx="530" cy="112" r="1.5" fill="rgba(233,230,220,0.08)"/><circle cx="568" cy="112" r="1.5" fill="rgba(233,230,220,0.08)"/><circle cx="606" cy="112" r="1.5" fill="rgba(233,230,220,0.08)"/><circle cx="644" cy="112" r="1.5" fill="rgba(233,230,220,0.08)"/><circle cx="682" cy="112" r="1.5" fill="rgba(233,230,220,0.08)"/><circle cx="720" cy="112" r="1.5" fill="rgba(233,230,220,0.08)"/><circle cx="758" cy="112" r="1.5" fill="rgba(233,230,220,0.08)"/><circle cx="36" cy="150" r="1.5" fill="rgba(233,230,220,0.08)"/><circle cx="74" cy="150" r="1.5" fill="rgba(233,230,220,0.08)"/><circle cx="112" cy="150" r="1.5" fill="rgba(233,230,220,0.08)"/><circle cx="150" cy="150" r="1.5" fill="rgba(233,230,220,0.08)"/><circle cx="188" cy="150" r="1.5" fill="rgba(233,230,220,0.08)"/><circle cx="226" cy="150" r="1.5" fill="rgba(233,230,220,0.08)"/><circle cx="264" cy="150" r="1.5" fill="rgba(233,230,220,0.08)"/><circle cx="302" cy="150" r="1.5" fill="rgba(233,230,220,0.08)"/><circle cx="340" cy="150" r="1.5" fill="rgba(233,230,220,0.08)"/><circle cx="378" cy="150" r="1.5" fill="rgba(233,230,220,0.08)"/><circle cx="416" cy="150" r="1.5" fill="rgba(233,230,220,0.08)"/><circle cx="454" cy="150" r="1.5" fill="rgba(233,230,220,0.08)"/><circle cx="492" cy="150" r="1.5" fill="rgba(233,230,220,0.08)"/><circle cx="530" cy="150" r="1.5" fill="rgba(233,230,220,0.08)"/><circle cx="568" cy="150" r="1.5" fill="rgba(233,230,220,0.08)"/><circle cx="606" cy="150" r="1.5" fill="rgba(233,230,220,0.08)"/><circle cx="644" cy="150" r="1.5" fill="rgba(233,230,220,0.08)"/><circle cx="682" cy="150" r="1.5" fill="rgba(233,230,220,0.08)"/><circle cx="720" cy="150" r="1.5" fill="rgba(233,230,220,0.08)"/><circle cx="758" cy="150" r="1.5" fill="rgba(233,230,220,0.08)"/><circle cx="36" cy="188" r="1.5" fill="rgba(233,230,220,0.08)"/><circle cx="74" cy="188" r="1.5" fill="rgba(233,230,220,0.08)"/><circle cx="112" cy="188" r="1.5" fill="rgba(233,230,220,0.08)"/><circle cx="150" cy="188" r="1.5" fill="rgba(233,230,220,0.08)"/><circle cx="188" cy="188" r="1.5" fill="rgba(233,230,220,0.08)"/><circle cx="226" cy="188" r="1.5" fill="rgba(233,230,220,0.08)"/><circle cx="264" cy="188" r="1.5" fill="rgba(233,230,220,0.08)"/><circle cx="302" cy="188" r="1.5" fill="rgba(233,230,220,0.08)"/><circle cx="340" cy="188" r="1.5" fill="rgba(233,230,220,0.08)"/><circle cx="378" cy="188" r="1.5" fill="rgba(233,230,220,0.08)"/><circle cx="416" cy="188" r="1.5" fill="rgba(233,230,220,0.08)"/><circle cx="454" cy="188" r="1.5" fill="rgba(233,230,220,0.08)"/><circle cx="492" cy="188" r="1.5" fill="rgba(233,230,220,0.08)"/><circle cx="530" cy="188" r="1.5" fill="rgba(233,230,220,0.08)"/><circle cx="568" cy="188" r="1.5" fill="rgba(233,230,220,0.08)"/><circle cx="606" cy="188" r="1.5" fill="rgba(233,230,220,0.08)"/><circle cx="644" cy="188" r="1.5" fill="rgba(233,230,220,0.08)"/><circle cx="682" cy="188" r="1.5" fill="rgba(233,230,220,0.08)"/><circle cx="720" cy="188" r="1.5" fill="rgba(233,230,220,0.08)"/><circle cx="758" cy="188" r="1.5" fill="rgba(233,230,220,0.08)"/><circle cx="36" cy="226" r="1.5" fill="rgba(233,230,220,0.08)"/><circle cx="74" cy="226" r="1.5" fill="rgba(233,230,220,0.08)"/><circle cx="112" cy="226" r="1.5" fill="rgba(233,230,220,0.08)"/><circle cx="150" cy="226" r="1.5" fill="rgba(233,230,220,0.08)"/><circle cx="188" cy="226" r="1.5" fill="rgba(233,230,220,0.08)"/><circle cx="226" cy="226" r="1.5" fill="rgba(233,230,220,0.08)"/><circle cx="264" cy="226" r="1.5" fill="rgba(233,230,220,0.08)"/><circle cx="302" cy="226" r="1.5" fill="rgba(233,230,220,0.08)"/><circle cx="340" cy="226" r="1.5" fill="rgba(233,230,220,0.08)"/><circle cx="378" cy="226" r="1.5" fill="rgba(233,230,220,0.08)"/><circle cx="416" cy="226" r="1.5" fill="rgba(233,230,220,0.08)"/><circle cx="454" cy="226" r="1.5" fill="rgba(233,230,220,0.08)"/><circle cx="492" cy="226" r="1.5" fill="rgba(233,230,220,0.08)"/><circle cx="530" cy="226" r="1.5" fill="rgba(233,230,220,0.08)"/><circle cx="568" cy="226" r="1.5" fill="rgba(233,230,220,0.08)"/><circle cx="606" cy="226" r="1.5" fill="rgba(233,230,220,0.08)"/><circle cx="644" cy="226" r="1.5" fill="rgba(233,230,220,0.08)"/><circle cx="682" cy="226" r="1.5" fill="rgba(233,230,220,0.08)"/><circle cx="720" cy="226" r="1.5" fill="rgba(233,230,220,0.08)"/><circle cx="758" cy="226" r="1.5" fill="rgba(233,230,220,0.08)"/><circle cx="36" cy="264" r="1.5" fill="rgba(233,230,220,0.08)"/><circle cx="74" cy="264" r="1.5" fill="rgba(233,230,220,0.08)"/><circle cx="112" cy="264" r="1.5" fill="rgba(233,230,220,0.08)"/><circle cx="150" cy="264" r="1.5" fill="rgba(233,230,220,0.08)"/><circle cx="188" cy="264" r="1.5" fill="rgba(233,230,220,0.08)"/><circle cx="226" cy="264" r="1.5" fill="rgba(233,230,220,0.08)"/><circle cx="264" cy="264" r="1.5" fill="rgba(233,230,220,0.08)"/><circle cx="302" cy="264" r="1.5" fill="rgba(233,230,220,0.08)"/><circle cx="340" cy="264" r="1.5" fill="rgba(233,230,220,0.08)"/><circle cx="378" cy="264" r="1.5" fill="rgba(233,230,220,0.08)"/><circle cx="416" cy="264" r="1.5" fill="rgba(233,230,220,0.08)"/><circle cx="454" cy="264" r="1.5" fill="rgba(233,230,220,0.08)"/><circle cx="492" cy="264" r="1.5" fill="rgba(233,230,220,0.08)"/><circle cx="530" cy="264" r="1.5" fill="rgba(233,230,220,0.08)"/><circle cx="568" cy="264" r="1.5" fill="rgba(233,230,220,0.08)"/><circle cx="606" cy="264" r="1.5" fill="rgba(233,230,220,0.08)"/><circle cx="644" cy="264" r="1.5" fill="rgba(233,230,220,0.08)"/><circle cx="682" cy="264" r="1.5" fill="rgba(233,230,220,0.08)"/><circle cx="720" cy="264" r="1.5" fill="rgba(233,230,220,0.08)"/><circle cx="758" cy="264" r="1.5" fill="rgba(233,230,220,0.08)"/><circle cx="36" cy="302" r="1.5" fill="rgba(233,230,220,0.08)"/><circle cx="74" cy="302" r="1.5" fill="rgba(233,230,220,0.08)"/><circle cx="112" cy="302" r="1.5" fill="rgba(233,230,220,0.08)"/><circle cx="150" cy="302" r="1.5" fill="rgba(233,230,220,0.08)"/><circle cx="188" cy="302" r="1.5" fill="rgba(233,230,220,0.08)"/><circle cx="226" cy="302" r="1.5" fill="rgba(233,230,220,0.08)"/><circle cx="264" cy="302" r="1.5" fill="rgba(233,230,220,0.08)"/><circle cx="302" cy="302" r="1.5" fill="rgba(233,230,220,0.08)"/><circle cx="340" cy="302" r="1.5" fill="rgba(233,230,220,0.08)"/><circle cx="378" cy="302" r="1.5" fill="rgba(233,230,220,0.08)"/><circle cx="416" cy="302" r="1.5" fill="rgba(233,230,220,0.08)"/><circle cx="454" cy="302" r="1.5" fill="rgba(233,230,220,0.08)"/><circle cx="492" cy="302" r="1.5" fill="rgba(233,230,220,0.08)"/><circle cx="530" cy="302" r="1.5" fill="rgba(233,230,220,0.08)"/><circle cx="568" cy="302" r="1.5" fill="rgba(233,230,220,0.08)"/><circle cx="606" cy="302" r="1.5" fill="rgba(233,230,220,0.08)"/><circle cx="644" cy="302" r="1.5" fill="rgba(233,230,220,0.08)"/><circle cx="682" cy="302" r="1.5" fill="rgba(233,230,220,0.08)"/><circle cx="720" cy="302" r="1.5" fill="rgba(233,230,220,0.08)"/><circle cx="758" cy="302" r="1.5" fill="rgba(233,230,220,0.08)"/><circle cx="36" cy="340" r="1.5" fill="rgba(233,230,220,0.08)"/><circle cx="74" cy="340" r="1.5" fill="rgba(233,230,220,0.08)"/><circle cx="112" cy="340" r="1.5" fill="rgba(233,230,220,0.08)"/><circle cx="150" cy="340" r="1.5" fill="rgba(233,230,220,0.08)"/><circle cx="188" cy="340" r="1.5" fill="rgba(233,230,220,0.08)"/><circle cx="226" cy="340" r="1.5" fill="rgba(233,230,220,0.08)"/><circle cx="264" cy="340" r="1.5" fill="rgba(233,230,220,0.08)"/><circle cx="302" cy="340" r="1.5" fill="rgba(233,230,220,0.08)"/><circle cx="340" cy="340" r="1.5" fill="rgba(233,230,220,0.08)"/><circle cx="378" cy="340" r="1.5" fill="rgba(233,230,220,0.08)"/><circle cx="416" cy="340" r="1.5" fill="rgba(233,230,220,0.08)"/><circle cx="454" cy="340" r="1.5" fill="rgba(233,230,220,0.08)"/><circle cx="492" cy="340" r="1.5" fill="rgba(233,230,220,0.08)"/><circle cx="530" cy="340" r="1.5" fill="rgba(233,230,220,0.08)"/><circle cx="568" cy="340" r="1.5" fill="rgba(233,230,220,0.08)"/><circle cx="606" cy="340" r="1.5" fill="rgba(233,230,220,0.08)"/><circle cx="644" cy="340" r="1.5" fill="rgba(233,230,220,0.08)"/><circle cx="682" cy="340" r="1.5" fill="rgba(233,230,220,0.08)"/><circle cx="720" cy="340" r="1.5" fill="rgba(233,230,220,0.08)"/><circle cx="758" cy="340" r="1.5" fill="rgba(233,230,220,0.08)"/><circle cx="36" cy="378" r="1.5" fill="rgba(233,230,220,0.08)"/><circle cx="74" cy="378" r="1.5" fill="rgba(233,230,220,0.08)"/><circle cx="112" cy="378" r="1.5" fill="rgba(233,230,220,0.08)"/><circle cx="150" cy="378" r="1.5" fill="rgba(233,230,220,0.08)"/><circle cx="188" cy="378" r="1.5" fill="rgba(233,230,220,0.08)"/><circle cx="226" cy="378" r="1.5" fill="rgba(233,230,220,0.08)"/><circle cx="264" cy="378" r="1.5" fill="rgba(233,230,220,0.08)"/><circle cx="302" cy="378" r="1.5" fill="rgba(233,230,220,0.08)"/><circle cx="340" cy="378" r="1.5" fill="rgba(233,230,220,0.08)"/><circle cx="378" cy="378" r="1.5" fill="rgba(233,230,220,0.08)"/><circle cx="416" cy="378" r="1.5" fill="rgba(233,230,220,0.08)"/><circle cx="454" cy="378" r="1.5" fill="rgba(233,230,220,0.08)"/><circle cx="492" cy="378" r="1.5" fill="rgba(233,230,220,0.08)"/><circle cx="530" cy="378" r="1.5" fill="rgba(233,230,220,0.08)"/><circle cx="568" cy="378" r="1.5" fill="rgba(233,230,220,0.08)"/><circle cx="606" cy="378" r="1.5" fill="rgba(233,230,220,0.08)"/><circle cx="644" cy="378" r="1.5" fill="rgba(233,230,220,0.08)"/><circle cx="682" cy="378" r="1.5" fill="rgba(233,230,220,0.08)"/><circle cx="720" cy="378" r="1.5" fill="rgba(233,230,220,0.08)"/><circle cx="758" cy="378" r="1.5" fill="rgba(233,230,220,0.08)"/><circle cx="36" cy="416" r="1.5" fill="rgba(233,230,220,0.08)"/><circle cx="74" cy="416" r="1.5" fill="rgba(233,230,220,0.08)"/><circle cx="112" cy="416" r="1.5" fill="rgba(233,230,220,0.08)"/><circle cx="150" cy="416" r="1.5" fill="rgba(233,230,220,0.08)"/><circle cx="188" cy="416" r="1.5" fill="rgba(233,230,220,0.08)"/><circle cx="226" cy="416" r="1.5" fill="rgba(233,230,220,0.08)"/><circle cx="264" cy="416" r="1.5" fill="rgba(233,230,220,0.08)"/><circle cx="302" cy="416" r="1.5" fill="rgba(233,230,220,0.08)"/><circle cx="340" cy="416" r="1.5" fill="rgba(233,230,220,0.08)"/><circle cx="378" cy="416" r="1.5" fill="rgba(233,230,220,0.08)"/><circle cx="416" cy="416" r="1.5" fill="rgba(233,230,220,0.08)"/><circle cx="454" cy="416" r="1.5" fill="rgba(233,230,220,0.08)"/><circle cx="492" cy="416" r="1.5" fill="rgba(233,230,220,0.08)"/><circle cx="530" cy="416" r="1.5" fill="rgba(233,230,220,0.08)"/><circle cx="568" cy="416" r="1.5" fill="rgba(233,230,220,0.08)"/><circle cx="606" cy="416" r="1.5" fill="rgba(233,230,220,0.08)"/><circle cx="644" cy="416" r="1.5" fill="rgba(233,230,220,0.08)"/><circle cx="682" cy="416" r="1.5" fill="rgba(233,230,220,0.08)"/><circle cx="720" cy="416" r="1.5" fill="rgba(233,230,220,0.08)"/><circle cx="758" cy="416" r="1.5" fill="rgba(233,230,220,0.08)"/><circle cx="36" cy="454" r="1.5" fill="rgba(233,230,220,0.08)"/><circle cx="74" cy="454" r="1.5" fill="rgba(233,230,220,0.08)"/><circle cx="112" cy="454" r="1.5" fill="rgba(233,230,220,0.08)"/><circle cx="150" cy="454" r="1.5" fill="rgba(233,230,220,0.08)"/><circle cx="188" cy="454" r="1.5" fill="rgba(233,230,220,0.08)"/><circle cx="226" cy="454" r="1.5" fill="rgba(233,230,220,0.08)"/><circle cx="264" cy="454" r="1.5" fill="rgba(233,230,220,0.08)"/><circle cx="302" cy="454" r="1.5" fill="rgba(233,230,220,0.08)"/><circle cx="340" cy="454" r="1.5" fill="rgba(233,230,220,0.08)"/><circle cx="378" cy="454" r="1.5" fill="rgba(233,230,220,0.08)"/><circle cx="416" cy="454" r="1.5" fill="rgba(233,230,220,0.08)"/><circle cx="454" cy="454" r="1.5" fill="rgba(233,230,220,0.08)"/><circle cx="492" cy="454" r="1.5" fill="rgba(233,230,220,0.08)"/><circle cx="530" cy="454" r="1.5" fill="rgba(233,230,220,0.08)"/><circle cx="568" cy="454" r="1.5" fill="rgba(233,230,220,0.08)"/><circle cx="606" cy="454" r="1.5" fill="rgba(233,230,220,0.08)"/><circle cx="644" cy="454" r="1.5" fill="rgba(233,230,220,0.08)"/><circle cx="682" cy="454" r="1.5" fill="rgba(233,230,220,0.08)"/><circle cx="720" cy="454" r="1.5" fill="rgba(233,230,220,0.08)"/><circle cx="758" cy="454" r="1.5" fill="rgba(233,230,220,0.08)"/><circle cx="36" cy="492" r="1.5" fill="rgba(233,230,220,0.08)"/><circle cx="74" cy="492" r="1.5" fill="rgba(233,230,220,0.08)"/><circle cx="112" cy="492" r="1.5" fill="rgba(233,230,220,0.08)"/><circle cx="150" cy="492" r="1.5" fill="rgba(233,230,220,0.08)"/><circle cx="188" cy="492" r="1.5" fill="rgba(233,230,220,0.08)"/><circle cx="226" cy="492" r="1.5" fill="rgba(233,230,220,0.08)"/><circle cx="264" cy="492" r="1.5" fill="rgba(233,230,220,0.08)"/><circle cx="302" cy="492" r="1.5" fill="rgba(233,230,220,0.08)"/><circle cx="340" cy="492" r="1.5" fill="rgba(233,230,220,0.08)"/><circle cx="378" cy="492" r="1.5" fill="rgba(233,230,220,0.08)"/><circle cx="416" cy="492" r="1.5" fill="rgba(233,230,220,0.08)"/><circle cx="454" cy="492" r="1.5" fill="rgba(233,230,220,0.08)"/><circle cx="492" cy="492" r="1.5" fill="rgba(233,230,220,0.08)"/><circle cx="530" cy="492" r="1.5" fill="rgba(233,230,220,0.08)"/><circle cx="568" cy="492" r="1.5" fill="rgba(233,230,220,0.08)"/><circle cx="606" cy="492" r="1.5" fill="rgba(233,230,220,0.08)"/><circle cx="644" cy="492" r="1.5" fill="rgba(233,230,220,0.08)"/><circle cx="682" cy="492" r="1.5" fill="rgba(233,230,220,0.08)"/><circle cx="720" cy="492" r="1.5" fill="rgba(233,230,220,0.08)"/><circle cx="758" cy="492" r="1.5" fill="rgba(233,230,220,0.08)"/><circle cx="36" cy="530" r="1.5" fill="rgba(233,230,220,0.08)"/><circle cx="74" cy="530" r="1.5" fill="rgba(233,230,220,0.08)"/><circle cx="112" cy="530" r="1.5" fill="rgba(233,230,220,0.08)"/><circle cx="150" cy="530" r="1.5" fill="rgba(233,230,220,0.08)"/><circle cx="188" cy="530" r="1.5" fill="rgba(233,230,220,0.08)"/><circle cx="226" cy="530" r="1.5" fill="rgba(233,230,220,0.08)"/><circle cx="264" cy="530" r="1.5" fill="rgba(233,230,220,0.08)"/><circle cx="302" cy="530" r="1.5" fill="rgba(233,230,220,0.08)"/><circle cx="340" cy="530" r="1.5" fill="rgba(233,230,220,0.08)"/><circle cx="378" cy="530" r="1.5" fill="rgba(233,230,220,0.08)"/><circle cx="416" cy="530" r="1.5" fill="rgba(233,230,220,0.08)"/><circle cx="454" cy="530" r="1.5" fill="rgba(233,230,220,0.08)"/><circle cx="492" cy="530" r="1.5" fill="rgba(233,230,220,0.08)"/><circle cx="530" cy="530" r="1.5" fill="rgba(233,230,220,0.08)"/><circle cx="568" cy="530" r="1.5" fill="rgba(233,230,220,0.08)"/><circle cx="606" cy="530" r="1.5" fill="rgba(233,230,220,0.08)"/><circle cx="644" cy="530" r="1.5" fill="rgba(233,230,220,0.08)"/><circle cx="682" cy="530" r="1.5" fill="rgba(233,230,220,0.08)"/><circle cx="720" cy="530" r="1.5" fill="rgba(233,230,220,0.08)"/><circle cx="758" cy="530" r="1.5" fill="rgba(233,230,220,0.08)"/><rect x="90" y="90" width="620" height="420" rx="18" fill="#161B27" stroke="rgba(233,230,220,0.3)" stroke-width="2" /><line x1="90" y1="144" x2="710" y2="144" stroke="rgba(233,230,220,0.14)" stroke-width="1.5"/><circle cx="118" cy="117" r="5" fill="#E8837A"/><circle cx="138" cy="117" r="5" fill="#E8C15A"/><circle cx="158" cy="117" r="5" fill="#FF7A45"/><rect x="186" y="110" width="180" height="14" rx="7" fill="#232936"/><line x1="240" y1="144" x2="240" y2="510" stroke="rgba(233,230,220,0.14)" stroke-width="1.5"/><rect x="114" y="170" width="100" height="10" rx="5.0" fill="#232936"/><rect x="114" y="204" width="84" height="10" rx="5.0" fill="#FF7A45"/><rect x="114" y="238" width="100" height="10" rx="5.0" fill="#232936"/><rect x="114" y="272" width="100" height="10" rx="5.0" fill="#232936"/><rect x="114" y="306" width="100" height="10" rx="5.0" fill="#232936"/><rect x="114" y="340" width="100" height="10" rx="5.0" fill="#232936"/><rect x="268" y="168" width="202" height="100" rx="12" fill="#FBFCFA" stroke="rgba(233,230,220,0.14)" stroke-width="1.5" /><rect x="288" y="188" width="90" height="10" rx="5.0" fill="#39404E"/><rect x="288" y="210" width="140" height="8" rx="4.0" fill="#232936"/><rect x="288" y="234" width="56" height="16" rx="8" fill="rgba(255,122,69,0.35)"/><rect x="494" y="168" width="202" height="100" rx="12" fill="#FBFCFA" stroke="rgba(233,230,220,0.14)" stroke-width="1.5" /><rect x="514" y="188" width="90" height="10" rx="5.0" fill="#39404E"/><rect x="514" y="210" width="140" height="8" rx="4.0" fill="#232936"/><rect x="514" y="234" width="56" height="16" rx="8" fill="rgba(232,193,90,0.4)"/><rect x="268" y="288" width="202" height="100" rx="12" fill="#FBFCFA" stroke="rgba(233,230,220,0.14)" stroke-width="1.5" /><rect x="288" y="308" width="90" height="10" rx="5.0" fill="#39404E"/><rect x="288" y="330" width="140" height="8" rx="4.0" fill="#232936"/><rect x="288" y="354" width="56" height="16" rx="8" fill="#232936"/><rect x="494" y="288" width="202" height="100" rx="12" fill="#FBFCFA" stroke="rgba(233,230,220,0.14)" stroke-width="1.5" /><rect x="514" y="308" width="90" height="10" rx="5.0" fill="#39404E"/><rect x="514" y="330" width="140" height="8" rx="4.0" fill="#232936"/><rect x="514" y="354" width="56" height="16" rx="8" fill="rgba(91,141,239,0.25)"/><rect x="268" y="420" width="424" height="10" rx="5.0" fill="#232936"/><rect x="268" y="444" width="360" height="10" rx="5.0" fill="#232936"/></svg>
