<svg xmlns="http://www.w3.org/2000/svg" viewBox="0 0 800 600" width="800" height="600" role="img" aria-hidden="true"><circle cx="36" cy="36" r="1.5" fill="rgba(233,230,220,0.08)"/><circle cx="74" cy="36" r="1.5" fill="rgba(233,230,220,0.08)"/><circle cx="112" cy="36" r="1.5" fill="rgba(233,230,220,0.08)"/><circle cx="150" cy="36" r="1.5" fill="rgba(233,230,220,0.08)"/><circle cx="188" cy="36" r="1.5" fill="rgba(233,230,220,0.08)"/><circle cx="226" cy="36" r="1.5" fill="rgba(233,230,220,0.08)"/><circle cx="264" cy="36" r="1.5" fill="rgba(233,230,220,0.08)"/><circle cx="302" cy="36" r="1.5" fill="rgba(233,230,220,0.08)"/><circle cx="340" cy="36" r="1.5" fill="rgba(233,230,220,0.08)"/><circle cx="378" cy="36" r="1.5" fill="rgba(233,230,220,0.08)"/><circle cx="416" cy="36" r="1.5" fill="rgba(233,230,220,0.08)"/><circle cx="454" cy="36" r="1.5" fill="rgba(233,230,220,0.08)"/><circle cx="492" cy="36" r="1.5" fill="rgba(233,230,220,0.08)"/><circle cx="530" cy="36" r="1.5" fill="rgba(233,230,220,0.08)"/><circle cx="568" cy="36" r="1.5" fill="rgba(233,230,220,0.08)"/><circle cx="606" cy="36" r="1.5" fill="rgba(233,230,220,0.08)"/><circle cx="644" cy="36" r="1.5" fill="rgba(233,230,220,0.08)"/><circle cx="682" cy="36" r="1.5" fill="rgba(233,230,220,0.08)"/><circle cx="720" cy="36" r="1.5" fill="rgba(233,230,220,0.08)"/><circle cx="758" cy="36" r="1.5" fill="rgba(233,230,220,0.08)"/><circle cx="36" cy="74" r="1.5" fill="rgba(233,230,220,0.08)"/><circle cx="74" cy="74" r="1.5" fill="rgba(233,230,220,0.08)"/><circle cx="112" cy="74" r="1.5" fill="rgba(233,230,220,0.08)"/><circle cx="150" cy="74" r="1.5" fill="rgba(233,230,220,0.08)"/><circle cx="188" cy="74" r="1.5" fill="rgba(233,230,220,0.08)"/><circle cx="226" cy="74" r="1.5" fill="rgba(233,230,220,0.08)"/><circle cx="264" cy="74" r="1.5" fill="rgba(233,230,220,0.08)"/><circle cx="302" cy="74" r="1.5" fill="rgba(233,230,220,0.08)"/><circle cx="340" cy="74" r="1.5" fill="rgba(233,230,220,0.08)"/><circle cx="378" cy="74" r="1.5" fill="rgba(233,230,220,0.08)"/><circle cx="416" cy="74" r="1.5" fill="rgba(233,230,220,0.08)"/><circle cx="454" cy="74" r="1.5" fill="rgba(233,230,220,0.08)"/><circle cx="492" cy="74" r="1.5" fill="rgba(233,230,220,0.08)"/><circle cx="530" cy="74" r="1.5" fill="rgba(233,230,220,0.08)"/><circle cx="568" cy="74" r="1.5" fill="rgba(233,230,220,0.08)"/><circle cx="606" cy="74" r="1.5" fill="rgba(233,230,220,0.08)"/><circle cx="644" cy="74" r="1.5" fill="rgba(233,230,220,0.08)"/><circle cx="682" cy="74" r="1.5" fill="rgba(233,230,220,0.08)"/><circle cx="720" cy="74" r="1.5" fill="rgba(233,230,220,0.08)"/><circle cx="758" cy="74" r="1.5" fill="rgba(233,230,220,0.08)"/><circle cx="36" cy="112" r="1.5" fill="rgba(233,230,220,0.08)"/><circle cx="74" cy="112" r="1.5" fill="rgba(233,230,220,0.08)"/><circle cx="112" cy="112" r="1.5" fill="rgba(233,230,220,0.08)"/><circle cx="150" cy="112" r="1.5" fill="rgba(233,230,220,0.08)"/><circle cx="188" cy="112" r="1.5" fill="rgba(233,230,220,0.08)"/><circle cx="226" cy="112" r="1.5" fill="rgba(233,230,220,0.08)"/><circle cx="264" cy="112" r="1.5" fill="rgba(233,230,220,0.08)"/><circle cx="302" cy="112" r="1.5" fill="rgba(233,230,220,0.08)"/><circle cx="340" cy="112" r="1.5" fill="rgba(233,230,220,0.08)"/><circle cx="378" cy="112" r="1.5" fill="rgba(233,230,220,0.08)"/><circle cx="416" cy="112" r="1.5" fill="rgba(233,230,220,0.08)"/><circle cx="454" cy="112" r="1.5" fill="rgba(233,230,220,0.08)"/><circle cx="492" cy="112" r="1.5" fill="rgba(233,230,220,0.08)"/><circle cx="530" cy="112" r="1.5" fill="rgba(233,230,220,0.08)"/><circle cx="568" cy="112" r="1.5" fill="rgba(233,230,220,0.08)"/><circle cx="606" cy="112" r="1.5" fill="rgba(233,230,220,0.08)"/><circle cx="644" cy="112" r="1.5" fill="rgba(233,230,220,0.08)"/><circle cx="682" cy="112" r="1.5" fill="rgba(233,230,220,0.08)"/><circle cx="720" cy="112" r="1.5" fill="rgba(233,230,220,0.08)"/><circle cx="758" cy="112" r="1.5" fill="rgba(233,230,220,0.08)"/><circle cx="36" cy="150" r="1.5" fill="rgba(233,230,220,0.08)"/><circle cx="74" cy="150" r="1.5" fill="rgba(233,230,220,0.08)"/><circle cx="112" cy="150" r="1.5" fill="rgba(233,230,220,0.08)"/><circle cx="150" cy="150" r="1.5" fill="rgba(233,230,220,0.08)"/><circle cx="188" cy="150" r="1.5" fill="rgba(233,230,220,0.08)"/><circle cx="226" cy="150" r="1.5" fill="rgba(233,230,220,0.08)"/><circle cx="264" cy="150" r="1.5" fill="rgba(233,230,220,0.08)"/><circle cx="302" cy="150" r="1.5" fill="rgba(233,230,220,0.08)"/><circle cx="340" cy="150" r="1.5" fill="rgba(233,230,220,0.08)"/><circle cx="378" cy="150" r="1.5" fill="rgba(233,230,220,0.08)"/><circle cx="416" cy="150" r="1.5" fill="rgba(233,230,220,0.08)"/><circle cx="454" cy="150" r="1.5" fill="rgba(233,230,220,0.08)"/><circle cx="492" cy="150" r="1.5" fill="rgba(233,230,220,0.08)"/><circle cx="530" cy="150" r="1.5" fill="rgba(233,230,220,0.08)"/><circle cx="568" cy="150" r="1.5" fill="rgba(233,230,220,0.08)"/><circle cx="606" cy="150" r="1.5" fill="rgba(233,230,220,0.08)"/><circle cx="644" cy="150" r="1.5" fill="rgba(233,230,220,0.08)"/><circle cx="682" cy="150" r="1.5" fill="rgba(233,230,220,0.08)"/><circle cx="720" cy="150" r="1.5" fill="rgba(233,230,220,0.08)"/><circle cx="758" cy="150" r="1.5" fill="rgba(233,230,220,0.08)"/><circle cx="36" cy="188" r="1.5" fill="rgba(233,230,220,0.08)"/><circle cx="74" cy="188" r="1.5" fill="rgba(233,230,220,0.08)"/><circle cx="112" cy="188" r="1.5" fill="rgba(233,230,220,0.08)"/><circle cx="150" cy="188" r="1.5" fill="rgba(233,230,220,0.08)"/><circle cx="188" cy="188" r="1.5" fill="rgba(233,230,220,0.08)"/><circle cx="226" cy="188" r="1.5" fill="rgba(233,230,220,0.08)"/><circle cx="264" cy="188" r="1.5" fill="rgba(233,230,220,0.08)"/><circle cx="302" cy="188" r="1.5" fill="rgba(233,230,220,0.08)"/><circle cx="340" cy="188" r="1.5" fill="rgba(233,230,220,0.08)"/><circle cx="378" cy="188" r="1.5" fill="rgba(233,230,220,0.08)"/><circle cx="416" cy="188" r="1.5" fill="rgba(233,230,220,0.08)"/><circle cx="454" cy="188" r="1.5" fill="rgba(233,230,220,0.08)"/><circle cx="492" cy="188" r="1.5" fill="rgba(233,230,220,0.08)"/><circle cx="530" cy="188" r="1.5" fill="rgba(233,230,220,0.08)"/><circle cx="568" cy="188" r="1.5" fill="rgba(233,230,220,0.08)"/><circle cx="606" cy="188" r="1.5" fill="rgba(233,230,220,0.08)"/><circle cx="644" cy="188" r="1.5" fill="rgba(233,230,220,0.08)"/><circle cx="682" cy="188" r="1.5" fill="rgba(233,230,220,0.08)"/><circle cx="720" cy="188" r="1.5" fill="rgba(233,230,220,0.08)"/><circle cx="758" cy="188" r="1.5" fill="rgba(233,230,220,0.08)"/><circle cx="36" cy="226" r="1.5" fill="rgba(233,230,220,0.08)"/><circle cx="74" cy="226" r="1.5" fill="rgba(233,230,220,0.08)"/><circle cx="112" cy="226" r="1.5" fill="rgba(233,230,220,0.08)"/><circle cx="150" cy="226" r="1.5" fill="rgba(233,230,220,0.08)"/><circle cx="188" cy="226" r="1.5" fill="rgba(233,230,220,0.08)"/><circle cx="226" cy="226" r="1.5" fill="rgba(233,230,220,0.08)"/><circle cx="264" cy="226" r="1.5" fill="rgba(233,230,220,0.08)"/><circle cx="302" cy="226" r="1.5" fill="rgba(233,230,220,0.08)"/><circle cx="340" cy="226" r="1.5" fill="rgba(233,230,220,0.08)"/><circle cx="378" cy="226" r="1.5" fill="rgba(233,230,220,0.08)"/><circle cx="416" cy="226" r="1.5" fill="rgba(233,230,220,0.08)"/><circle cx="454" cy="226" r="1.5" fill="rgba(233,230,220,0.08)"/><circle cx="492" cy="226" r="1.5" fill="rgba(233,230,220,0.08)"/><circle cx="530" cy="226" r="1.5" fill="rgba(233,230,220,0.08)"/><circle cx="568" cy="226" r="1.5" fill="rgba(233,230,220,0.08)"/><circle cx="606" cy="226" r="1.5" fill="rgba(233,230,220,0.08)"/><circle cx="644" cy="226" r="1.5" fill="rgba(233,230,220,0.08)"/><circle cx="682" cy="226" r="1.5" fill="rgba(233,230,220,0.08)"/><circle cx="720" cy="226" r="1.5" fill="rgba(233,230,220,0.08)"/><circle cx="758" cy="226" r="1.5" fill="rgba(233,230,220,0.08)"/><circle cx="36" cy="264" r="1.5" fill="rgba(233,230,220,0.08)"/><circle cx="74" cy="264" r="1.5" fill="rgba(233,230,220,0.08)"/><circle cx="112" cy="264" r="1.5" fill="rgba(233,230,220,0.08)"/><circle cx="150" cy="264" r="1.5" fill="rgba(233,230,220,0.08)"/><circle cx="188" cy="264" r="1.5" fill="rgba(233,230,220,0.08)"/><circle cx="226" cy="264" r="1.5" fill="rgba(233,230,220,0.08)"/><circle cx="264" cy="264" r="1.5" fill="rgba(233,230,220,0.08)"/><circle cx="302" cy="264" r="1.5" fill="rgba(233,230,220,0.08)"/><circle cx="340" cy="264" r="1.5" fill="rgba(233,230,220,0.08)"/><circle cx="378" cy="264" r="1.5" fill="rgba(233,230,220,0.08)"/><circle cx="416" cy="264" r="1.5" fill="rgba(233,230,220,0.08)"/><circle cx="454" cy="264" r="1.5" fill="rgba(233,230,220,0.08)"/><circle cx="492" cy="264" r="1.5" fill="rgba(233,230,220,0.08)"/><circle cx="530" cy="264" r="1.5" fill="rgba(233,230,220,0.08)"/><circle cx="568" cy="264" r="1.5" fill="rgba(233,230,220,0.08)"/><circle cx="606" cy="264" r="1.5" fill="rgba(233,230,220,0.08)"/><circle cx="644" cy="264" r="1.5" fill="rgba(233,230,220,0.08)"/><circle cx="682" cy="264" r="1.5" fill="rgba(233,230,220,0.08)"/><circle cx="720" cy="264" r="1.5" fill="rgba(233,230,220,0.08)"/><circle cx="758" cy="264" r="1.5" fill="rgba(233,230,220,0.08)"/><circle cx="36" cy="302" r="1.5" fill="rgba(233,230,220,0.08)"/><circle cx="74" cy="302" r="1.5" fill="rgba(233,230,220,0.08)"/><circle cx="112" cy="302" r="1.5" fill="rgba(233,230,220,0.08)"/><circle cx="150" cy="302" r="1.5" fill="rgba(233,230,220,0.08)"/><circle cx="188" cy="302" r="1.5" fill="rgba(233,230,220,0.08)"/><circle cx="226" cy="302" r="1.5" fill="rgba(233,230,220,0.08)"/><circle cx="264" cy="302" r="1.5" fill="rgba(233,230,220,0.08)"/><circle cx="302" cy="302" r="1.5" fill="rgba(233,230,220,0.08)"/><circle cx="340" cy="302" r="1.5" fill="rgba(233,230,220,0.08)"/><circle cx="378" cy="302" r="1.5" fill="rgba(233,230,220,0.08)"/><circle cx="416" cy="302" r="1.5" fill="rgba(233,230,220,0.08)"/><circle cx="454" cy="302" r="1.5" fill="rgba(233,230,220,0.08)"/><circle cx="492" cy="302" r="1.5" fill="rgba(233,230,220,0.08)"/><circle cx="530" cy="302" r="1.5" fill="rgba(233,230,220,0.08)"/><circle cx="568" cy="302" r="1.5" fill="rgba(233,230,220,0.08)"/><circle cx="606" cy="302" r="1.5" fill="rgba(233,230,220,0.08)"/><circle cx="644" cy="302" r="1.5" fill="rgba(233,230,220,0.08)"/><circle cx="682" cy="302" r="1.5" fill="rgba(233,230,220,0.08)"/><circle cx="720" cy="302" r="1.5" fill="rgba(233,230,220,0.08)"/><circle cx="758" cy="302" r="1.5" fill="rgba(233,230,220,0.08)"/><circle cx="36" cy="340" r="1.5" fill="rgba(233,230,220,0.08)"/><circle cx="74" cy="340" r="1.5" fill="rgba(233,230,220,0.08)"/><circle cx="112" cy="340" r="1.5" fill="rgba(233,230,220,0.08)"/><circle cx="150" cy="340" r="1.5" fill="rgba(233,230,220,0.08)"/><circle cx="188" cy="340" r="1.5" fill="rgba(233,230,220,0.08)"/><circle cx="226" cy="340" r="1.5" fill="rgba(233,230,220,0.08)"/><circle cx="264" cy="340" r="1.5" fill="rgba(233,230,220,0.08)"/><circle cx="302" cy="340" r="1.5" fill="rgba(233,230,220,0.08)"/><circle cx="340" cy="340" r="1.5" fill="rgba(233,230,220,0.08)"/><circle cx="378" cy="340" r="1.5" fill="rgba(233,230,220,0.08)"/><circle cx="416" cy="340" r="1.5" fill="rgba(233,230,220,0.08)"/><circle cx="454" cy="340" r="1.5" fill="rgba(233,230,220,0.08)"/><circle cx="492" cy="340" r="1.5" fill="rgba(233,230,220,0.08)"/><circle cx="530" cy="340" r="1.5" fill="rgba(233,230,220,0.08)"/><circle cx="568" cy="340" r="1.5" fill="rgba(233,230,220,0.08)"/><circle cx="606" cy="340" r="1.5" fill="rgba(233,230,220,0.08)"/><circle cx="644" cy="340" r="1.5" fill="rgba(233,230,220,0.08)"/><circle cx="682" cy="340" r="1.5" fill="rgba(233,230,220,0.08)"/><circle cx="720" cy="340" r="1.5" fill="rgba(233,230,220,0.08)"/><circle cx="758" cy="340" r="1.5" fill="rgba(233,230,220,0.08)"/><circle cx="36" cy="378" r="1.5" fill="rgba(233,230,220,0.08)"/><circle cx="74" cy="378" r="1.5" fill="rgba(233,230,220,0.08)"/><circle cx="112" cy="378" r="1.5" fill="rgba(233,230,220,0.08)"/><circle cx="150" cy="378" r="1.5" fill="rgba(233,230,220,0.08)"/><circle cx="188" cy="378" r="1.5" fill="rgba(233,230,220,0.08)"/><circle cx="226" cy="378" r="1.5" fill="rgba(233,230,220,0.08)"/><circle cx="264" cy="378" r="1.5" fill="rgba(233,230,220,0.08)"/><circle cx="302" cy="378" r="1.5" fill="rgba(233,230,220,0.08)"/><circle cx="340" cy="378" r="1.5" fill="rgba(233,230,220,0.08)"/><circle cx="378" cy="378" r="1.5" fill="rgba(233,230,220,0.08)"/><circle cx="416" cy="378" r="1.5" fill="rgba(233,230,220,0.08)"/><circle cx="454" cy="378" r="1.5" fill="rgba(233,230,220,0.08)"/><circle cx="492" cy="378" r="1.5" fill="rgba(233,230,220,0.08)"/><circle cx="530" cy="378" r="1.5" fill="rgba(233,230,220,0.08)"/><circle cx="568" cy="378" r="1.5" fill="rgba(233,230,220,0.08)"/><circle cx="606" cy="378" r="1.5" fill="rgba(233,230,220,0.08)"/><circle cx="644" cy="378" r="1.5" fill="rgba(233,230,220,0.08)"/><circle cx="682" cy="378" r="1.5" fill="rgba(233,230,220,0.08)"/><circle cx="720" cy="378" r="1.5" fill="rgba(233,230,220,0.08)"/><circle cx="758" cy="378" r="1.5" fill="rgba(233,230,220,0.08)"/><circle cx="36" cy="416" r="1.5" fill="rgba(233,230,220,0.08)"/><circle cx="74" cy="416" r="1.5" fill="rgba(233,230,220,0.08)"/><circle cx="112" cy="416" r="1.5" fill="rgba(233,230,220,0.08)"/><circle cx="150" cy="416" r="1.5" fill="rgba(233,230,220,0.08)"/><circle cx="188" cy="416" r="1.5" fill="rgba(233,230,220,0.08)"/><circle cx="226" cy="416" r="1.5" fill="rgba(233,230,220,0.08)"/><circle cx="264" cy="416" r="1.5" fill="rgba(233,230,220,0.08)"/><circle cx="302" cy="416" r="1.5" fill="rgba(233,230,220,0.08)"/><circle cx="340" cy="416" r="1.5" fill="rgba(233,230,220,0.08)"/><circle cx="378" cy="416" r="1.5" fill="rgba(233,230,220,0.08)"/><circle cx="416" cy="416" r="1.5" fill="rgba(233,230,220,0.08)"/><circle cx="454" cy="416" r="1.5" fill="rgba(233,230,220,0.08)"/><circle cx="492" cy="416" r="1.5" fill="rgba(233,230,220,0.08)"/><circle cx="530" cy="416" r="1.5" fill="rgba(233,230,220,0.08)"/><circle cx="568" cy="416" r="1.5" fill="rgba(233,230,220,0.08)"/><circle cx="606" cy="416" r="1.5" fill="rgba(233,230,220,0.08)"/><circle cx="644" cy="416" r="1.5" fill="rgba(233,230,220,0.08)"/><circle cx="682" cy="416" r="1.5" fill="rgba(233,230,220,0.08)"/><circle cx="720" cy="416" r="1.5" fill="rgba(233,230,220,0.08)"/><circle cx="758" cy="416" r="1.5" fill="rgba(233,230,220,0.08)"/><circle cx="36" cy="454" r="1.5" fill="rgba(233,230,220,0.08)"/><circle cx="74" cy="454" r="1.5" fill="rgba(233,230,220,0.08)"/><circle cx="112" cy="454" r="1.5" fill="rgba(233,230,220,0.08)"/><circle cx="150" cy="454" r="1.5" fill="rgba(233,230,220,0.08)"/><circle cx="188" cy="454" r="1.5" fill="rgba(233,230,220,0.08)"/><circle cx="226" cy="454" r="1.5" fill="rgba(233,230,220,0.08)"/><circle cx="264" cy="454" r="1.5" fill="rgba(233,230,220,0.08)"/><circle cx="302" cy="454" r="1.5" fill="rgba(233,230,220,0.08)"/><circle cx="340" cy="454" r="1.5" fill="rgba(233,230,220,0.08)"/><circle cx="378" cy="454" r="1.5" fill="rgba(233,230,220,0.08)"/><circle cx="416" cy="454" r="1.5" fill="rgba(233,230,220,0.08)"/><circle cx="454" cy="454" r="1.5" fill="rgba(233,230,220,0.08)"/><circle cx="492" cy="454" r="1.5" fill="rgba(233,230,220,0.08)"/><circle cx="530" cy="454" r="1.5" fill="rgba(233,230,220,0.08)"/><circle cx="568" cy="454" r="1.5" fill="rgba(233,230,220,0.08)"/><circle cx="606" cy="454" r="1.5" fill="rgba(233,230,220,0.08)"/><circle cx="644" cy="454" r="1.5" fill="rgba(233,230,220,0.08)"/><circle cx="682" cy="454" r="1.5" fill="rgba(233,230,220,0.08)"/><circle cx="720" cy="454" r="1.5" fill="rgba(233,230,220,0.08)"/><circle cx="758" cy="454" r="1.5" fill="rgba(233,230,220,0.08)"/><circle cx="36" cy="492" r="1.5" fill="rgba(233,230,220,0.08)"/><circle cx="74" cy="492" r="1.5" fill="rgba(233,230,220,0.08)"/><circle cx="112" cy="492" r="1.5" fill="rgba(233,230,220,0.08)"/><circle cx="150" cy="492" r="1.5" fill="rgba(233,230,220,0.08)"/><circle cx="188" cy="492" r="1.5" fill="rgba(233,230,220,0.08)"/><circle cx="226" cy="492" r="1.5" fill="rgba(233,230,220,0.08)"/><circle cx="264" cy="492" r="1.5" fill="rgba(233,230,220,0.08)"/><circle cx="302" cy="492" r="1.5" fill="rgba(233,230,220,0.08)"/><circle cx="340" cy="492" r="1.5" fill="rgba(233,230,220,0.08)"/><circle cx="378" cy="492" r="1.5" fill="rgba(233,230,220,0.08)"/><circle cx="416" cy="492" r="1.5" fill="rgba(233,230,220,0.08)"/><circle cx="454" cy="492" r="1.5" fill="rgba(233,230,220,0.08)"/><circle cx="492" cy="492" r="1.5" fill="rgba(233,230,220,0.08)"/><circle cx="530" cy="492" r="1.5" fill="rgba(233,230,220,0.08)"/><circle cx="568" cy="492" r="1.5" fill="rgba(233,230,220,0.08)"/><circle cx="606" cy="492" r="1.5" fill="rgba(233,230,220,0.08)"/><circle cx="644" cy="492" r="1.5" fill="rgba(233,230,220,0.08)"/><circle cx="682" cy="492" r="1.5" fill="rgba(233,230,220,0.08)"/><circle cx="720" cy="492" r="1.5" fill="rgba(233,230,220,0.08)"/><circle cx="758" cy="492" r="1.5" fill="rgba(233,230,220,0.08)"/><circle cx="36" cy="530" r="1.5" fill="rgba(233,230,220,0.08)"/><circle cx="74" cy="530" r="1.5" fill="rgba(233,230,220,0.08)"/><circle cx="112" cy="530" r="1.5" fill="rgba(233,230,220,0.08)"/><circle cx="150" cy="530" r="1.5" fill="rgba(233,230,220,0.08)"/><circle cx="188" cy="530" r="1.5" fill="rgba(233,230,220,0.08)"/><circle cx="226" cy="530" r="1.5" fill="rgba(233,230,220,0.08)"/><circle cx="264" cy="530" r="1.5" fill="rgba(233,230,220,0.08)"/><circle cx="302" cy="530" r="1.5" fill="rgba(233,230,220,0.08)"/><circle cx="340" cy="530" r="1.5" fill="rgba(233,230,220,0.08)"/><circle cx="378" cy="530" r="1.5" fill="rgba(233,230,220,0.08)"/><circle cx="416" cy="530" r="1.5" fill="rgba(233,230,220,0.08)"/><circle cx="454" cy="530" r="1.5" fill="rgba(233,230,220,0.08)"/><circle cx="492" cy="530" r="1.5" fill="rgba(233,230,220,0.08)"/><circle cx="530" cy="530" r="1.5" fill="rgba(233,230,220,0.08)"/><circle cx="568" cy="530" r="1.5" fill="rgba(233,230,220,0.08)"/><circle cx="606" cy="530" r="1.5" fill="rgba(233,230,220,0.08)"/><circle cx="644" cy="530" r="1.5" fill="rgba(233,230,220,0.08)"/><circle cx="682" cy="530" r="1.5" fill="rgba(233,230,220,0.08)"/><circle cx="720" cy="530" r="1.5" fill="rgba(233,230,220,0.08)"/><circle cx="758" cy="530" r="1.5" fill="rgba(233,230,220,0.08)"/><rect x="110" y="180" width="170" height="220" rx="14" fill="#161B27" stroke="rgba(233,230,220,0.3)" stroke-width="2" /><path d="M110 194 q0 -14 14 -14 h108 l48 44 v162 q0 14 -14 14" fill="none"/><rect x="136" y="214" width="118" height="9" rx="4.5" fill="#39404E"/><rect x="136" y="240" width="96" height="9" rx="4.5" fill="#232936"/><rect x="136" y="266" width="74" height="9" rx="4.5" fill="#232936"/><rect x="136" y="292" width="118" height="9" rx="4.5" fill="#232936"/><rect x="136" y="318" width="96" height="9" rx="4.5" fill="#232936"/><rect x="136" y="344" width="74" height="9" rx="4.5" fill="#232936"/><path d="M292 290 L340 290" stroke="rgba(233,230,220,0.3)" stroke-width="2" stroke-dasharray="2 7" stroke-linecap="round"/><line x1="370" y1="230" x2="460" y2="200" stroke="rgba(91,141,239,0.25)" stroke-width="1.5"/><line x1="370" y1="230" x2="460" y2="260" stroke="rgba(91,141,239,0.25)" stroke-width="1.5"/><line x1="370" y1="230" x2="460" y2="320" stroke="rgba(91,141,239,0.25)" stroke-width="1.5"/><line x1="370" y1="230" x2="460" y2="380" stroke="rgba(91,141,239,0.25)" stroke-width="1.5"/><line x1="370" y1="290" x2="460" y2="200" stroke="rgba(91,141,239,0.25)" stroke-width="1.5"/><line x1="370" y1="290" x2="460" y2="260" stroke="rgba(91,141,239,0.25)" stroke-width="1.5"/><line x1="370" y1="290" x2="460" y2="320" stroke="rgba(91,141,239,0.25)" stroke-width="1.5"/><line x1="370" y1="290" x2="460" y2="380" stroke="rgba(91,141,239,0.25)" stroke-width="1.5"/><line x1="370" y1="350" x2="460" y2="200" stroke="rgba(91,141,239,0.25)" stroke-width="1.5"/><line x1="370" y1="350" x2="460" y2="260" stroke="rgba(91,141,239,0.25)" stroke-width="1.5"/><line x1="370" y1="350" x2="460" y2="320" stroke="rgba(91,141,239,0.25)" stroke-width="1.5"/><line x1="370" y1="350" x2="460" y2="380" stroke="rgba(91,141,239,0.25)" stroke-width="1.5"/><line x1="460" y1="200" x2="550" y2="260" stroke="rgba(91,141,239,0.25)" stroke-width="1.5"/><line x1="460" y1="200" x2="550" y2="320" stroke="rgba(91,141,239,0.25)" stroke-width="1.5"/><line x1="460" y1="260" x2="550" y2="260" stroke="rgba(91,141,239,0.25)" stroke-width="1.5"/><line x1="460" y1="260" x2="550" y2="320" stroke="rgba(91,141,239,0.25)" stroke-width="1.5"/><line x1="460" y1="320" x2="550" y2="260" stroke="rgba(91,141,239,0.25)" stroke-width="1.5"/><line x1="460" y1="320" x2="550" y2="320" stroke="rgba(91,141,239,0.25)" stroke-width="1.5"/><line x1="460" y1="380" x2="550" y2="260" stroke="rgba(91,141,239,0.25)" stroke-width="1.5"/><line x1="460" y1="380" x2="550" y2="320" stroke="rgba(91,141,239,0.25)" stroke-width="1.5"/><circle cx="370" cy="230" r="13" fill="#161B27" stroke="#E9E6DC" stroke-width="2"/><circle cx="370" cy="290" r="13" fill="#161B27" stroke="#E9E6DC" stroke-width="2"/><circle cx="370" cy="350" r="13" fill="#161B27" stroke="#E9E6DC" stroke-width="2"/><circle cx="460" cy="200" r="13" fill="#E9E6DC" stroke="#E9E6DC" stroke-width="2"/><circle cx="460" cy="260" r="13" fill="#E9E6DC" stroke="#E9E6DC" stroke-width="2"/><circle cx="460" cy="320" r="13" fill="#E9E6DC" stroke="#E9E6DC" stroke-width="2"/><circle cx="460" cy="380" r="13" fill="#E9E6DC" stroke="#E9E6DC" stroke-width="2"/><circle cx="550" cy="260" r="13" fill="#FF7A45" stroke="#E9E6DC" stroke-width="2"/><circle cx="550" cy="320" r="13" fill="#FF7A45" stroke="#E9E6DC" stroke-width="2"/><path d="M563 290 L610 290" stroke="rgba(233,230,220,0.3)" stroke-width="2" stroke-dasharray="2 7" stroke-linecap="round"/><rect x="610" y="250" width="96" height="80" rx="14" fill="#161B27" stroke="#FF7A45" stroke-width="2.5" /><path d="M640 290 l9 9 l18 -20" stroke="#5B8DEF" stroke-width="4" fill="none" stroke-linecap="round" stroke-linejoin="round"/></svg>
