<svg xmlns="http://www.w3.org/2000/svg" viewBox="0 0 1680 720" width="1680" height="720" role="img" aria-hidden="true"><rect x="0" y="0" width="1680" height="720" rx="0" fill="#FAFAF7" stroke="none" stroke-width="0" /><circle cx="40" cy="40" r="1.5" fill="rgba(10,22,31,0.08)"/><circle cx="84" cy="40" r="1.5" fill="rgba(10,22,31,0.08)"/><circle cx="128" cy="40" r="1.5" fill="rgba(10,22,31,0.08)"/><circle cx="172" cy="40" r="1.5" fill="rgba(10,22,31,0.08)"/><circle cx="216" cy="40" r="1.5" fill="rgba(10,22,31,0.08)"/><circle cx="260" cy="40" r="1.5" fill="rgba(10,22,31,0.08)"/><circle cx="304" cy="40" r="1.5" fill="rgba(10,22,31,0.08)"/><circle cx="348" cy="40" r="1.5" fill="rgba(10,22,31,0.08)"/><circle cx="392" cy="40" r="1.5" fill="rgba(10,22,31,0.08)"/><circle cx="436" cy="40" r="1.5" fill="rgba(10,22,31,0.08)"/><circle cx="480" cy="40" r="1.5" fill="rgba(10,22,31,0.08)"/><circle cx="524" cy="40" r="1.5" fill="rgba(10,22,31,0.08)"/><circle cx="568" cy="40" r="1.5" fill="rgba(10,22,31,0.08)"/><circle cx="612" cy="40" r="1.5" fill="rgba(10,22,31,0.08)"/><circle cx="656" cy="40" r="1.5" fill="rgba(10,22,31,0.08)"/><circle cx="700" cy="40" r="1.5" fill="rgba(10,22,31,0.08)"/><circle cx="744" cy="40" r="1.5" fill="rgba(10,22,31,0.08)"/><circle cx="788" cy="40" r="1.5" fill="rgba(10,22,31,0.08)"/><circle cx="832" cy="40" r="1.5" fill="rgba(10,22,31,0.08)"/><circle cx="876" cy="40" r="1.5" fill="rgba(10,22,31,0.08)"/><circle cx="920" cy="40" r="1.5" fill="rgba(10,22,31,0.08)"/><circle cx="964" cy="40" r="1.5" fill="rgba(10,22,31,0.08)"/><circle cx="1008" cy="40" r="1.5" fill="rgba(10,22,31,0.08)"/><circle cx="1052" cy="40" r="1.5" fill="rgba(10,22,31,0.08)"/><circle cx="1096" cy="40" r="1.5" fill="rgba(10,22,31,0.08)"/><circle cx="1140" cy="40" r="1.5" fill="rgba(10,22,31,0.08)"/><circle cx="1184" cy="40" r="1.5" fill="rgba(10,22,31,0.08)"/><circle cx="1228" cy="40" r="1.5" fill="rgba(10,22,31,0.08)"/><circle cx="1272" cy="40" r="1.5" fill="rgba(10,22,31,0.08)"/><circle cx="1316" cy="40" r="1.5" fill="rgba(10,22,31,0.08)"/><circle cx="1360" cy="40" r="1.5" fill="rgba(10,22,31,0.08)"/><circle cx="1404" cy="40" r="1.5" fill="rgba(10,22,31,0.08)"/><circle cx="1448" cy="40" r="1.5" fill="rgba(10,22,31,0.08)"/><circle cx="1492" cy="40" r="1.5" fill="rgba(10,22,31,0.08)"/><circle cx="1536" cy="40" r="1.5" fill="rgba(10,22,31,0.08)"/><circle cx="1580" cy="40" r="1.5" fill="rgba(10,22,31,0.08)"/><circle cx="1624" cy="40" r="1.5" fill="rgba(10,22,31,0.08)"/><circle cx="40" cy="84" r="1.5" fill="rgba(10,22,31,0.08)"/><circle cx="84" cy="84" r="1.5" fill="rgba(10,22,31,0.08)"/><circle cx="128" cy="84" r="1.5" fill="rgba(10,22,31,0.08)"/><circle cx="172" cy="84" r="1.5" fill="rgba(10,22,31,0.08)"/><circle cx="216" cy="84" r="1.5" fill="rgba(10,22,31,0.08)"/><circle cx="260" cy="84" r="1.5" fill="rgba(10,22,31,0.08)"/><circle cx="304" cy="84" r="1.5" fill="rgba(10,22,31,0.08)"/><circle cx="348" cy="84" r="1.5" fill="rgba(10,22,31,0.08)"/><circle cx="392" cy="84" r="1.5" fill="rgba(10,22,31,0.08)"/><circle cx="436" cy="84" r="1.5" fill="rgba(10,22,31,0.08)"/><circle cx="480" cy="84" r="1.5" fill="rgba(10,22,31,0.08)"/><circle cx="524" cy="84" r="1.5" fill="rgba(10,22,31,0.08)"/><circle cx="568" cy="84" r="1.5" fill="rgba(10,22,31,0.08)"/><circle cx="612" cy="84" r="1.5" fill="rgba(10,22,31,0.08)"/><circle cx="656" cy="84" r="1.5" fill="rgba(10,22,31,0.08)"/><circle cx="700" cy="84" r="1.5" fill="rgba(10,22,31,0.08)"/><circle cx="744" cy="84" r="1.5" fill="rgba(10,22,31,0.08)"/><circle cx="788" cy="84" r="1.5" fill="rgba(10,22,31,0.08)"/><circle cx="832" cy="84" r="1.5" fill="rgba(10,22,31,0.08)"/><circle cx="876" cy="84" r="1.5" fill="rgba(10,22,31,0.08)"/><circle cx="920" cy="84" r="1.5" fill="rgba(10,22,31,0.08)"/><circle cx="964" cy="84" r="1.5" fill="rgba(10,22,31,0.08)"/><circle cx="1008" cy="84" r="1.5" fill="rgba(10,22,31,0.08)"/><circle cx="1052" cy="84" r="1.5" fill="rgba(10,22,31,0.08)"/><circle cx="1096" cy="84" r="1.5" fill="rgba(10,22,31,0.08)"/><circle cx="1140" cy="84" r="1.5" fill="rgba(10,22,31,0.08)"/><circle cx="1184" cy="84" r="1.5" fill="rgba(10,22,31,0.08)"/><circle cx="1228" cy="84" r="1.5" fill="rgba(10,22,31,0.08)"/><circle cx="1272" cy="84" r="1.5" fill="rgba(10,22,31,0.08)"/><circle cx="1316" cy="84" r="1.5" fill="rgba(10,22,31,0.08)"/><circle cx="1360" cy="84" r="1.5" fill="rgba(10,22,31,0.08)"/><circle cx="1404" cy="84" r="1.5" fill="rgba(10,22,31,0.08)"/><circle cx="1448" cy="84" r="1.5" fill="rgba(10,22,31,0.08)"/><circle cx="1492" cy="84" r="1.5" fill="rgba(10,22,31,0.08)"/><circle cx="1536" cy="84" r="1.5" fill="rgba(10,22,31,0.08)"/><circle cx="1580" cy="84" r="1.5" fill="rgba(10,22,31,0.08)"/><circle cx="1624" cy="84" r="1.5" fill="rgba(10,22,31,0.08)"/><circle cx="40" cy="128" r="1.5" fill="rgba(10,22,31,0.08)"/><circle cx="84" cy="128" r="1.5" fill="rgba(10,22,31,0.08)"/><circle cx="128" cy="128" r="1.5" fill="rgba(10,22,31,0.08)"/><circle cx="172" cy="128" r="1.5" fill="rgba(10,22,31,0.08)"/><circle cx="216" cy="128" r="1.5" fill="rgba(10,22,31,0.08)"/><circle cx="260" cy="128" r="1.5" fill="rgba(10,22,31,0.08)"/><circle cx="304" cy="128" r="1.5" fill="rgba(10,22,31,0.08)"/><circle cx="348" cy="128" r="1.5" fill="rgba(10,22,31,0.08)"/><circle cx="392" cy="128" r="1.5" fill="rgba(10,22,31,0.08)"/><circle cx="436" cy="128" r="1.5" fill="rgba(10,22,31,0.08)"/><circle cx="480" cy="128" r="1.5" fill="rgba(10,22,31,0.08)"/><circle cx="524" cy="128" r="1.5" fill="rgba(10,22,31,0.08)"/><circle cx="568" cy="128" r="1.5" fill="rgba(10,22,31,0.08)"/><circle cx="612" cy="128" r="1.5" fill="rgba(10,22,31,0.08)"/><circle cx="656" cy="128" r="1.5" fill="rgba(10,22,31,0.08)"/><circle cx="700" cy="128" r="1.5" fill="rgba(10,22,31,0.08)"/><circle cx="744" cy="128" r="1.5" fill="rgba(10,22,31,0.08)"/><circle cx="788" cy="128" r="1.5" fill="rgba(10,22,31,0.08)"/><circle cx="832" cy="128" r="1.5" fill="rgba(10,22,31,0.08)"/><circle cx="876" cy="128" r="1.5" fill="rgba(10,22,31,0.08)"/><circle cx="920" cy="128" r="1.5" fill="rgba(10,22,31,0.08)"/><circle cx="964" cy="128" r="1.5" fill="rgba(10,22,31,0.08)"/><circle cx="1008" cy="128" r="1.5" fill="rgba(10,22,31,0.08)"/><circle cx="1052" cy="128" r="1.5" fill="rgba(10,22,31,0.08)"/><circle cx="1096" cy="128" r="1.5" fill="rgba(10,22,31,0.08)"/><circle cx="1140" cy="128" r="1.5" fill="rgba(10,22,31,0.08)"/><circle cx="1184" cy="128" r="1.5" fill="rgba(10,22,31,0.08)"/><circle cx="1228" cy="128" r="1.5" fill="rgba(10,22,31,0.08)"/><circle cx="1272" cy="128" r="1.5" fill="rgba(10,22,31,0.08)"/><circle cx="1316" cy="128" r="1.5" fill="rgba(10,22,31,0.08)"/><circle cx="1360" cy="128" r="1.5" fill="rgba(10,22,31,0.08)"/><circle cx="1404" cy="128" r="1.5" fill="rgba(10,22,31,0.08)"/><circle cx="1448" cy="128" r="1.5" fill="rgba(10,22,31,0.08)"/><circle cx="1492" cy="128" r="1.5" fill="rgba(10,22,31,0.08)"/><circle cx="1536" cy="128" r="1.5" fill="rgba(10,22,31,0.08)"/><circle cx="1580" cy="128" r="1.5" fill="rgba(10,22,31,0.08)"/><circle cx="1624" cy="128" r="1.5" fill="rgba(10,22,31,0.08)"/><circle cx="40" cy="172" r="1.5" fill="rgba(10,22,31,0.08)"/><circle cx="84" cy="172" r="1.5" fill="rgba(10,22,31,0.08)"/><circle cx="128" cy="172" r="1.5" fill="rgba(10,22,31,0.08)"/><circle cx="172" cy="172" r="1.5" fill="rgba(10,22,31,0.08)"/><circle cx="216" cy="172" r="1.5" fill="rgba(10,22,31,0.08)"/><circle cx="260" cy="172" r="1.5" fill="rgba(10,22,31,0.08)"/><circle cx="304" cy="172" r="1.5" fill="rgba(10,22,31,0.08)"/><circle cx="348" cy="172" r="1.5" fill="rgba(10,22,31,0.08)"/><circle cx="392" cy="172" r="1.5" fill="rgba(10,22,31,0.08)"/><circle cx="436" cy="172" r="1.5" fill="rgba(10,22,31,0.08)"/><circle cx="480" cy="172" r="1.5" fill="rgba(10,22,31,0.08)"/><circle cx="524" cy="172" r="1.5" fill="rgba(10,22,31,0.08)"/><circle cx="568" cy="172" r="1.5" fill="rgba(10,22,31,0.08)"/><circle cx="612" cy="172" r="1.5" fill="rgba(10,22,31,0.08)"/><circle cx="656" cy="172" r="1.5" fill="rgba(10,22,31,0.08)"/><circle cx="700" cy="172" r="1.5" fill="rgba(10,22,31,0.08)"/><circle cx="744" cy="172" r="1.5" fill="rgba(10,22,31,0.08)"/><circle cx="788" cy="172" r="1.5" fill="rgba(10,22,31,0.08)"/><circle cx="832" cy="172" r="1.5" fill="rgba(10,22,31,0.08)"/><circle cx="876" cy="172" r="1.5" fill="rgba(10,22,31,0.08)"/><circle cx="920" cy="172" r="1.5" fill="rgba(10,22,31,0.08)"/><circle cx="964" cy="172" r="1.5" fill="rgba(10,22,31,0.08)"/><circle cx="1008" cy="172" r="1.5" fill="rgba(10,22,31,0.08)"/><circle cx="1052" cy="172" r="1.5" fill="rgba(10,22,31,0.08)"/><circle cx="1096" cy="172" r="1.5" fill="rgba(10,22,31,0.08)"/><circle cx="1140" cy="172" r="1.5" fill="rgba(10,22,31,0.08)"/><circle cx="1184" cy="172" r="1.5" fill="rgba(10,22,31,0.08)"/><circle cx="1228" cy="172" r="1.5" fill="rgba(10,22,31,0.08)"/><circle cx="1272" cy="172" r="1.5" fill="rgba(10,22,31,0.08)"/><circle cx="1316" cy="172" r="1.5" fill="rgba(10,22,31,0.08)"/><circle cx="1360" cy="172" r="1.5" fill="rgba(10,22,31,0.08)"/><circle cx="1404" cy="172" r="1.5" fill="rgba(10,22,31,0.08)"/><circle cx="1448" cy="172" r="1.5" fill="rgba(10,22,31,0.08)"/><circle cx="1492" cy="172" r="1.5" fill="rgba(10,22,31,0.08)"/><circle cx="1536" cy="172" r="1.5" fill="rgba(10,22,31,0.08)"/><circle cx="1580" cy="172" r="1.5" fill="rgba(10,22,31,0.08)"/><circle cx="1624" cy="172" r="1.5" fill="rgba(10,22,31,0.08)"/><circle cx="40" cy="216" r="1.5" fill="rgba(10,22,31,0.08)"/><circle cx="84" cy="216" r="1.5" fill="rgba(10,22,31,0.08)"/><circle cx="128" cy="216" r="1.5" fill="rgba(10,22,31,0.08)"/><circle cx="172" cy="216" r="1.5" fill="rgba(10,22,31,0.08)"/><circle cx="216" cy="216" r="1.5" fill="rgba(10,22,31,0.08)"/><circle cx="260" cy="216" r="1.5" fill="rgba(10,22,31,0.08)"/><circle cx="304" cy="216" r="1.5" fill="rgba(10,22,31,0.08)"/><circle cx="348" cy="216" r="1.5" fill="rgba(10,22,31,0.08)"/><circle cx="392" cy="216" r="1.5" fill="rgba(10,22,31,0.08)"/><circle cx="436" cy="216" r="1.5" fill="rgba(10,22,31,0.08)"/><circle cx="480" cy="216" r="1.5" fill="rgba(10,22,31,0.08)"/><circle cx="524" cy="216" r="1.5" fill="rgba(10,22,31,0.08)"/><circle cx="568" cy="216" r="1.5" fill="rgba(10,22,31,0.08)"/><circle cx="612" cy="216" r="1.5" fill="rgba(10,22,31,0.08)"/><circle cx="656" cy="216" r="1.5" fill="rgba(10,22,31,0.08)"/><circle cx="700" cy="216" r="1.5" fill="rgba(10,22,31,0.08)"/><circle cx="744" cy="216" r="1.5" fill="rgba(10,22,31,0.08)"/><circle cx="788" cy="216" r="1.5" fill="rgba(10,22,31,0.08)"/><circle cx="832" cy="216" r="1.5" fill="rgba(10,22,31,0.08)"/><circle cx="876" cy="216" r="1.5" fill="rgba(10,22,31,0.08)"/><circle cx="920" cy="216" r="1.5" fill="rgba(10,22,31,0.08)"/><circle cx="964" cy="216" r="1.5" fill="rgba(10,22,31,0.08)"/><circle cx="1008" cy="216" r="1.5" fill="rgba(10,22,31,0.08)"/><circle cx="1052" cy="216" r="1.5" fill="rgba(10,22,31,0.08)"/><circle cx="1096" cy="216" r="1.5" fill="rgba(10,22,31,0.08)"/><circle cx="1140" cy="216" r="1.5" fill="rgba(10,22,31,0.08)"/><circle cx="1184" cy="216" r="1.5" fill="rgba(10,22,31,0.08)"/><circle cx="1228" cy="216" r="1.5" fill="rgba(10,22,31,0.08)"/><circle cx="1272" cy="216" r="1.5" fill="rgba(10,22,31,0.08)"/><circle cx="1316" cy="216" r="1.5" fill="rgba(10,22,31,0.08)"/><circle cx="1360" cy="216" r="1.5" fill="rgba(10,22,31,0.08)"/><circle cx="1404" cy="216" r="1.5" fill="rgba(10,22,31,0.08)"/><circle cx="1448" cy="216" r="1.5" fill="rgba(10,22,31,0.08)"/><circle cx="1492" cy="216" r="1.5" fill="rgba(10,22,31,0.08)"/><circle cx="1536" cy="216" r="1.5" fill="rgba(10,22,31,0.08)"/><circle cx="1580" cy="216" r="1.5" fill="rgba(10,22,31,0.08)"/><circle cx="1624" cy="216" r="1.5" fill="rgba(10,22,31,0.08)"/><circle cx="40" cy="260" r="1.5" fill="rgba(10,22,31,0.08)"/><circle cx="84" cy="260" r="1.5" fill="rgba(10,22,31,0.08)"/><circle cx="128" cy="260" r="1.5" fill="rgba(10,22,31,0.08)"/><circle cx="172" cy="260" r="1.5" fill="rgba(10,22,31,0.08)"/><circle cx="216" cy="260" r="1.5" fill="rgba(10,22,31,0.08)"/><circle cx="260" cy="260" r="1.5" fill="rgba(10,22,31,0.08)"/><circle cx="304" cy="260" r="1.5" fill="rgba(10,22,31,0.08)"/><circle cx="348" cy="260" r="1.5" fill="rgba(10,22,31,0.08)"/><circle cx="392" cy="260" r="1.5" fill="rgba(10,22,31,0.08)"/><circle cx="436" cy="260" r="1.5" fill="rgba(10,22,31,0.08)"/><circle cx="480" cy="260" r="1.5" fill="rgba(10,22,31,0.08)"/><circle cx="524" cy="260" r="1.5" fill="rgba(10,22,31,0.08)"/><circle cx="568" cy="260" r="1.5" fill="rgba(10,22,31,0.08)"/><circle cx="612" cy="260" r="1.5" fill="rgba(10,22,31,0.08)"/><circle cx="656" cy="260" r="1.5" fill="rgba(10,22,31,0.08)"/><circle cx="700" cy="260" r="1.5" fill="rgba(10,22,31,0.08)"/><circle cx="744" cy="260" r="1.5" fill="rgba(10,22,31,0.08)"/><circle cx="788" cy="260" r="1.5" fill="rgba(10,22,31,0.08)"/><circle cx="832" cy="260" r="1.5" fill="rgba(10,22,31,0.08)"/><circle cx="876" cy="260" r="1.5" fill="rgba(10,22,31,0.08)"/><circle cx="920" cy="260" r="1.5" fill="rgba(10,22,31,0.08)"/><circle cx="964" cy="260" r="1.5" fill="rgba(10,22,31,0.08)"/><circle cx="1008" cy="260" r="1.5" fill="rgba(10,22,31,0.08)"/><circle cx="1052" cy="260" r="1.5" fill="rgba(10,22,31,0.08)"/><circle cx="1096" cy="260" r="1.5" fill="rgba(10,22,31,0.08)"/><circle cx="1140" cy="260" r="1.5" fill="rgba(10,22,31,0.08)"/><circle cx="1184" cy="260" r="1.5" fill="rgba(10,22,31,0.08)"/><circle cx="1228" cy="260" r="1.5" fill="rgba(10,22,31,0.08)"/><circle cx="1272" cy="260" r="1.5" fill="rgba(10,22,31,0.08)"/><circle cx="1316" cy="260" r="1.5" fill="rgba(10,22,31,0.08)"/><circle cx="1360" cy="260" r="1.5" fill="rgba(10,22,31,0.08)"/><circle cx="1404" cy="260" r="1.5" fill="rgba(10,22,31,0.08)"/><circle cx="1448" cy="260" r="1.5" fill="rgba(10,22,31,0.08)"/><circle cx="1492" cy="260" r="1.5" fill="rgba(10,22,31,0.08)"/><circle cx="1536" cy="260" r="1.5" fill="rgba(10,22,31,0.08)"/><circle cx="1580" cy="260" r="1.5" fill="rgba(10,22,31,0.08)"/><circle cx="1624" cy="260" r="1.5" fill="rgba(10,22,31,0.08)"/><circle cx="40" cy="304" r="1.5" fill="rgba(10,22,31,0.08)"/><circle cx="84" cy="304" r="1.5" fill="rgba(10,22,31,0.08)"/><circle cx="128" cy="304" r="1.5" fill="rgba(10,22,31,0.08)"/><circle cx="172" cy="304" r="1.5" fill="rgba(10,22,31,0.08)"/><circle cx="216" cy="304" r="1.5" fill="rgba(10,22,31,0.08)"/><circle cx="260" cy="304" r="1.5" fill="rgba(10,22,31,0.08)"/><circle cx="304" cy="304" r="1.5" fill="rgba(10,22,31,0.08)"/><circle cx="348" cy="304" r="1.5" fill="rgba(10,22,31,0.08)"/><circle cx="392" cy="304" r="1.5" fill="rgba(10,22,31,0.08)"/><circle cx="436" cy="304" r="1.5" fill="rgba(10,22,31,0.08)"/><circle cx="480" cy="304" r="1.5" fill="rgba(10,22,31,0.08)"/><circle cx="524" cy="304" r="1.5" fill="rgba(10,22,31,0.08)"/><circle cx="568" cy="304" r="1.5" fill="rgba(10,22,31,0.08)"/><circle cx="612" cy="304" r="1.5" fill="rgba(10,22,31,0.08)"/><circle cx="656" cy="304" r="1.5" fill="rgba(10,22,31,0.08)"/><circle cx="700" cy="304" r="1.5" fill="rgba(10,22,31,0.08)"/><circle cx="744" cy="304" r="1.5" fill="rgba(10,22,31,0.08)"/><circle cx="788" cy="304" r="1.5" fill="rgba(10,22,31,0.08)"/><circle cx="832" cy="304" r="1.5" fill="rgba(10,22,31,0.08)"/><circle cx="876" cy="304" r="1.5" fill="rgba(10,22,31,0.08)"/><circle cx="920" cy="304" r="1.5" fill="rgba(10,22,31,0.08)"/><circle cx="964" cy="304" r="1.5" fill="rgba(10,22,31,0.08)"/><circle cx="1008" cy="304" r="1.5" fill="rgba(10,22,31,0.08)"/><circle cx="1052" cy="304" r="1.5" fill="rgba(10,22,31,0.08)"/><circle cx="1096" cy="304" r="1.5" fill="rgba(10,22,31,0.08)"/><circle cx="1140" cy="304" r="1.5" fill="rgba(10,22,31,0.08)"/><circle cx="1184" cy="304" r="1.5" fill="rgba(10,22,31,0.08)"/><circle cx="1228" cy="304" r="1.5" fill="rgba(10,22,31,0.08)"/><circle cx="1272" cy="304" r="1.5" fill="rgba(10,22,31,0.08)"/><circle cx="1316" cy="304" r="1.5" fill="rgba(10,22,31,0.08)"/><circle cx="1360" cy="304" r="1.5" fill="rgba(10,22,31,0.08)"/><circle cx="1404" cy="304" r="1.5" fill="rgba(10,22,31,0.08)"/><circle cx="1448" cy="304" r="1.5" fill="rgba(10,22,31,0.08)"/><circle cx="1492" cy="304" r="1.5" fill="rgba(10,22,31,0.08)"/><circle cx="1536" cy="304" r="1.5" fill="rgba(10,22,31,0.08)"/><circle cx="1580" cy="304" r="1.5" fill="rgba(10,22,31,0.08)"/><circle cx="1624" cy="304" r="1.5" fill="rgba(10,22,31,0.08)"/><circle cx="40" cy="348" r="1.5" fill="rgba(10,22,31,0.08)"/><circle cx="84" cy="348" r="1.5" fill="rgba(10,22,31,0.08)"/><circle cx="128" cy="348" r="1.5" fill="rgba(10,22,31,0.08)"/><circle cx="172" cy="348" r="1.5" fill="rgba(10,22,31,0.08)"/><circle cx="216" cy="348" r="1.5" fill="rgba(10,22,31,0.08)"/><circle cx="260" cy="348" r="1.5" fill="rgba(10,22,31,0.08)"/><circle cx="304" cy="348" r="1.5" fill="rgba(10,22,31,0.08)"/><circle cx="348" cy="348" r="1.5" fill="rgba(10,22,31,0.08)"/><circle cx="392" cy="348" r="1.5" fill="rgba(10,22,31,0.08)"/><circle cx="436" cy="348" r="1.5" fill="rgba(10,22,31,0.08)"/><circle cx="480" cy="348" r="1.5" fill="rgba(10,22,31,0.08)"/><circle cx="524" cy="348" r="1.5" fill="rgba(10,22,31,0.08)"/><circle cx="568" cy="348" r="1.5" fill="rgba(10,22,31,0.08)"/><circle cx="612" cy="348" r="1.5" fill="rgba(10,22,31,0.08)"/><circle cx="656" cy="348" r="1.5" fill="rgba(10,22,31,0.08)"/><circle cx="700" cy="348" r="1.5" fill="rgba(10,22,31,0.08)"/><circle cx="744" cy="348" r="1.5" fill="rgba(10,22,31,0.08)"/><circle cx="788" cy="348" r="1.5" fill="rgba(10,22,31,0.08)"/><circle cx="832" cy="348" r="1.5" fill="rgba(10,22,31,0.08)"/><circle cx="876" cy="348" r="1.5" fill="rgba(10,22,31,0.08)"/><circle cx="920" cy="348" r="1.5" fill="rgba(10,22,31,0.08)"/><circle cx="964" cy="348" r="1.5" fill="rgba(10,22,31,0.08)"/><circle cx="1008" cy="348" r="1.5" fill="rgba(10,22,31,0.08)"/><circle cx="1052" cy="348" r="1.5" fill="rgba(10,22,31,0.08)"/><circle cx="1096" cy="348" r="1.5" fill="rgba(10,22,31,0.08)"/><circle cx="1140" cy="348" r="1.5" fill="rgba(10,22,31,0.08)"/><circle cx="1184" cy="348" r="1.5" fill="rgba(10,22,31,0.08)"/><circle cx="1228" cy="348" r="1.5" fill="rgba(10,22,31,0.08)"/><circle cx="1272" cy="348" r="1.5" fill="rgba(10,22,31,0.08)"/><circle cx="1316" cy="348" r="1.5" fill="rgba(10,22,31,0.08)"/><circle cx="1360" cy="348" r="1.5" fill="rgba(10,22,31,0.08)"/><circle cx="1404" cy="348" r="1.5" fill="rgba(10,22,31,0.08)"/><circle cx="1448" cy="348" r="1.5" fill="rgba(10,22,31,0.08)"/><circle cx="1492" cy="348" r="1.5" fill="rgba(10,22,31,0.08)"/><circle cx="1536" cy="348" r="1.5" fill="rgba(10,22,31,0.08)"/><circle cx="1580" cy="348" r="1.5" fill="rgba(10,22,31,0.08)"/><circle cx="1624" cy="348" r="1.5" fill="rgba(10,22,31,0.08)"/><circle cx="40" cy="392" r="1.5" fill="rgba(10,22,31,0.08)"/><circle cx="84" cy="392" r="1.5" fill="rgba(10,22,31,0.08)"/><circle cx="128" cy="392" r="1.5" fill="rgba(10,22,31,0.08)"/><circle cx="172" cy="392" r="1.5" fill="rgba(10,22,31,0.08)"/><circle cx="216" cy="392" r="1.5" fill="rgba(10,22,31,0.08)"/><circle cx="260" cy="392" r="1.5" fill="rgba(10,22,31,0.08)"/><circle cx="304" cy="392" r="1.5" fill="rgba(10,22,31,0.08)"/><circle cx="348" cy="392" r="1.5" fill="rgba(10,22,31,0.08)"/><circle cx="392" cy="392" r="1.5" fill="rgba(10,22,31,0.08)"/><circle cx="436" cy="392" r="1.5" fill="rgba(10,22,31,0.08)"/><circle cx="480" cy="392" r="1.5" fill="rgba(10,22,31,0.08)"/><circle cx="524" cy="392" r="1.5" fill="rgba(10,22,31,0.08)"/><circle cx="568" cy="392" r="1.5" fill="rgba(10,22,31,0.08)"/><circle cx="612" cy="392" r="1.5" fill="rgba(10,22,31,0.08)"/><circle cx="656" cy="392" r="1.5" fill="rgba(10,22,31,0.08)"/><circle cx="700" cy="392" r="1.5" fill="rgba(10,22,31,0.08)"/><circle cx="744" cy="392" r="1.5" fill="rgba(10,22,31,0.08)"/><circle cx="788" cy="392" r="1.5" fill="rgba(10,22,31,0.08)"/><circle cx="832" cy="392" r="1.5" fill="rgba(10,22,31,0.08)"/><circle cx="876" cy="392" r="1.5" fill="rgba(10,22,31,0.08)"/><circle cx="920" cy="392" r="1.5" fill="rgba(10,22,31,0.08)"/><circle cx="964" cy="392" r="1.5" fill="rgba(10,22,31,0.08)"/><circle cx="1008" cy="392" r="1.5" fill="rgba(10,22,31,0.08)"/><circle cx="1052" cy="392" r="1.5" fill="rgba(10,22,31,0.08)"/><circle cx="1096" cy="392" r="1.5" fill="rgba(10,22,31,0.08)"/><circle cx="1140" cy="392" r="1.5" fill="rgba(10,22,31,0.08)"/><circle cx="1184" cy="392" r="1.5" fill="rgba(10,22,31,0.08)"/><circle cx="1228" cy="392" r="1.5" fill="rgba(10,22,31,0.08)"/><circle cx="1272" cy="392" r="1.5" fill="rgba(10,22,31,0.08)"/><circle cx="1316" cy="392" r="1.5" fill="rgba(10,22,31,0.08)"/><circle cx="1360" cy="392" r="1.5" fill="rgba(10,22,31,0.08)"/><circle cx="1404" cy="392" r="1.5" fill="rgba(10,22,31,0.08)"/><circle cx="1448" cy="392" r="1.5" fill="rgba(10,22,31,0.08)"/><circle cx="1492" cy="392" r="1.5" fill="rgba(10,22,31,0.08)"/><circle cx="1536" cy="392" r="1.5" fill="rgba(10,22,31,0.08)"/><circle cx="1580" cy="392" r="1.5" fill="rgba(10,22,31,0.08)"/><circle cx="1624" cy="392" r="1.5" fill="rgba(10,22,31,0.08)"/><circle cx="40" cy="436" r="1.5" fill="rgba(10,22,31,0.08)"/><circle cx="84" cy="436" r="1.5" fill="rgba(10,22,31,0.08)"/><circle cx="128" cy="436" r="1.5" fill="rgba(10,22,31,0.08)"/><circle cx="172" cy="436" r="1.5" fill="rgba(10,22,31,0.08)"/><circle cx="216" cy="436" r="1.5" fill="rgba(10,22,31,0.08)"/><circle cx="260" cy="436" r="1.5" fill="rgba(10,22,31,0.08)"/><circle cx="304" cy="436" r="1.5" fill="rgba(10,22,31,0.08)"/><circle cx="348" cy="436" r="1.5" fill="rgba(10,22,31,0.08)"/><circle cx="392" cy="436" r="1.5" fill="rgba(10,22,31,0.08)"/><circle cx="436" cy="436" r="1.5" fill="rgba(10,22,31,0.08)"/><circle cx="480" cy="436" r="1.5" fill="rgba(10,22,31,0.08)"/><circle cx="524" cy="436" r="1.5" fill="rgba(10,22,31,0.08)"/><circle cx="568" cy="436" r="1.5" fill="rgba(10,22,31,0.08)"/><circle cx="612" cy="436" r="1.5" fill="rgba(10,22,31,0.08)"/><circle cx="656" cy="436" r="1.5" fill="rgba(10,22,31,0.08)"/><circle cx="700" cy="436" r="1.5" fill="rgba(10,22,31,0.08)"/><circle cx="744" cy="436" r="1.5" fill="rgba(10,22,31,0.08)"/><circle cx="788" cy="436" r="1.5" fill="rgba(10,22,31,0.08)"/><circle cx="832" cy="436" r="1.5" fill="rgba(10,22,31,0.08)"/><circle cx="876" cy="436" r="1.5" fill="rgba(10,22,31,0.08)"/><circle cx="920" cy="436" r="1.5" fill="rgba(10,22,31,0.08)"/><circle cx="964" cy="436" r="1.5" fill="rgba(10,22,31,0.08)"/><circle cx="1008" cy="436" r="1.5" fill="rgba(10,22,31,0.08)"/><circle cx="1052" cy="436" r="1.5" fill="rgba(10,22,31,0.08)"/><circle cx="1096" cy="436" r="1.5" fill="rgba(10,22,31,0.08)"/><circle cx="1140" cy="436" r="1.5" fill="rgba(10,22,31,0.08)"/><circle cx="1184" cy="436" r="1.5" fill="rgba(10,22,31,0.08)"/><circle cx="1228" cy="436" r="1.5" fill="rgba(10,22,31,0.08)"/><circle cx="1272" cy="436" r="1.5" fill="rgba(10,22,31,0.08)"/><circle cx="1316" cy="436" r="1.5" fill="rgba(10,22,31,0.08)"/><circle cx="1360" cy="436" r="1.5" fill="rgba(10,22,31,0.08)"/><circle cx="1404" cy="436" r="1.5" fill="rgba(10,22,31,0.08)"/><circle cx="1448" cy="436" r="1.5" fill="rgba(10,22,31,0.08)"/><circle cx="1492" cy="436" r="1.5" fill="rgba(10,22,31,0.08)"/><circle cx="1536" cy="436" r="1.5" fill="rgba(10,22,31,0.08)"/><circle cx="1580" cy="436" r="1.5" fill="rgba(10,22,31,0.08)"/><circle cx="1624" cy="436" r="1.5" fill="rgba(10,22,31,0.08)"/><circle cx="40" cy="480" r="1.5" fill="rgba(10,22,31,0.08)"/><circle cx="84" cy="480" r="1.5" fill="rgba(10,22,31,0.08)"/><circle cx="128" cy="480" r="1.5" fill="rgba(10,22,31,0.08)"/><circle cx="172" cy="480" r="1.5" fill="rgba(10,22,31,0.08)"/><circle cx="216" cy="480" r="1.5" fill="rgba(10,22,31,0.08)"/><circle cx="260" cy="480" r="1.5" fill="rgba(10,22,31,0.08)"/><circle cx="304" cy="480" r="1.5" fill="rgba(10,22,31,0.08)"/><circle cx="348" cy="480" r="1.5" fill="rgba(10,22,31,0.08)"/><circle cx="392" cy="480" r="1.5" fill="rgba(10,22,31,0.08)"/><circle cx="436" cy="480" r="1.5" fill="rgba(10,22,31,0.08)"/><circle cx="480" cy="480" r="1.5" fill="rgba(10,22,31,0.08)"/><circle cx="524" cy="480" r="1.5" fill="rgba(10,22,31,0.08)"/><circle cx="568" cy="480" r="1.5" fill="rgba(10,22,31,0.08)"/><circle cx="612" cy="480" r="1.5" fill="rgba(10,22,31,0.08)"/><circle cx="656" cy="480" r="1.5" fill="rgba(10,22,31,0.08)"/><circle cx="700" cy="480" r="1.5" fill="rgba(10,22,31,0.08)"/><circle cx="744" cy="480" r="1.5" fill="rgba(10,22,31,0.08)"/><circle cx="788" cy="480" r="1.5" fill="rgba(10,22,31,0.08)"/><circle cx="832" cy="480" r="1.5" fill="rgba(10,22,31,0.08)"/><circle cx="876" cy="480" r="1.5" fill="rgba(10,22,31,0.08)"/><circle cx="920" cy="480" r="1.5" fill="rgba(10,22,31,0.08)"/><circle cx="964" cy="480" r="1.5" fill="rgba(10,22,31,0.08)"/><circle cx="1008" cy="480" r="1.5" fill="rgba(10,22,31,0.08)"/><circle cx="1052" cy="480" r="1.5" fill="rgba(10,22,31,0.08)"/><circle cx="1096" cy="480" r="1.5" fill="rgba(10,22,31,0.08)"/><circle cx="1140" cy="480" r="1.5" fill="rgba(10,22,31,0.08)"/><circle cx="1184" cy="480" r="1.5" fill="rgba(10,22,31,0.08)"/><circle cx="1228" cy="480" r="1.5" fill="rgba(10,22,31,0.08)"/><circle cx="1272" cy="480" r="1.5" fill="rgba(10,22,31,0.08)"/><circle cx="1316" cy="480" r="1.5" fill="rgba(10,22,31,0.08)"/><circle cx="1360" cy="480" r="1.5" fill="rgba(10,22,31,0.08)"/><circle cx="1404" cy="480" r="1.5" fill="rgba(10,22,31,0.08)"/><circle cx="1448" cy="480" r="1.5" fill="rgba(10,22,31,0.08)"/><circle cx="1492" cy="480" r="1.5" fill="rgba(10,22,31,0.08)"/><circle cx="1536" cy="480" r="1.5" fill="rgba(10,22,31,0.08)"/><circle cx="1580" cy="480" r="1.5" fill="rgba(10,22,31,0.08)"/><circle cx="1624" cy="480" r="1.5" fill="rgba(10,22,31,0.08)"/><circle cx="40" cy="524" r="1.5" fill="rgba(10,22,31,0.08)"/><circle cx="84" cy="524" r="1.5" fill="rgba(10,22,31,0.08)"/><circle cx="128" cy="524" r="1.5" fill="rgba(10,22,31,0.08)"/><circle cx="172" cy="524" r="1.5" fill="rgba(10,22,31,0.08)"/><circle cx="216" cy="524" r="1.5" fill="rgba(10,22,31,0.08)"/><circle cx="260" cy="524" r="1.5" fill="rgba(10,22,31,0.08)"/><circle cx="304" cy="524" r="1.5" fill="rgba(10,22,31,0.08)"/><circle cx="348" cy="524" r="1.5" fill="rgba(10,22,31,0.08)"/><circle cx="392" cy="524" r="1.5" fill="rgba(10,22,31,0.08)"/><circle cx="436" cy="524" r="1.5" fill="rgba(10,22,31,0.08)"/><circle cx="480" cy="524" r="1.5" fill="rgba(10,22,31,0.08)"/><circle cx="524" cy="524" r="1.5" fill="rgba(10,22,31,0.08)"/><circle cx="568" cy="524" r="1.5" fill="rgba(10,22,31,0.08)"/><circle cx="612" cy="524" r="1.5" fill="rgba(10,22,31,0.08)"/><circle cx="656" cy="524" r="1.5" fill="rgba(10,22,31,0.08)"/><circle cx="700" cy="524" r="1.5" fill="rgba(10,22,31,0.08)"/><circle cx="744" cy="524" r="1.5" fill="rgba(10,22,31,0.08)"/><circle cx="788" cy="524" r="1.5" fill="rgba(10,22,31,0.08)"/><circle cx="832" cy="524" r="1.5" fill="rgba(10,22,31,0.08)"/><circle cx="876" cy="524" r="1.5" fill="rgba(10,22,31,0.08)"/><circle cx="920" cy="524" r="1.5" fill="rgba(10,22,31,0.08)"/><circle cx="964" cy="524" r="1.5" fill="rgba(10,22,31,0.08)"/><circle cx="1008" cy="524" r="1.5" fill="rgba(10,22,31,0.08)"/><circle cx="1052" cy="524" r="1.5" fill="rgba(10,22,31,0.08)"/><circle cx="1096" cy="524" r="1.5" fill="rgba(10,22,31,0.08)"/><circle cx="1140" cy="524" r="1.5" fill="rgba(10,22,31,0.08)"/><circle cx="1184" cy="524" r="1.5" fill="rgba(10,22,31,0.08)"/><circle cx="1228" cy="524" r="1.5" fill="rgba(10,22,31,0.08)"/><circle cx="1272" cy="524" r="1.5" fill="rgba(10,22,31,0.08)"/><circle cx="1316" cy="524" r="1.5" fill="rgba(10,22,31,0.08)"/><circle cx="1360" cy="524" r="1.5" fill="rgba(10,22,31,0.08)"/><circle cx="1404" cy="524" r="1.5" fill="rgba(10,22,31,0.08)"/><circle cx="1448" cy="524" r="1.5" fill="rgba(10,22,31,0.08)"/><circle cx="1492" cy="524" r="1.5" fill="rgba(10,22,31,0.08)"/><circle cx="1536" cy="524" r="1.5" fill="rgba(10,22,31,0.08)"/><circle cx="1580" cy="524" r="1.5" fill="rgba(10,22,31,0.08)"/><circle cx="1624" cy="524" r="1.5" fill="rgba(10,22,31,0.08)"/><circle cx="40" cy="568" r="1.5" fill="rgba(10,22,31,0.08)"/><circle cx="84" cy="568" r="1.5" fill="rgba(10,22,31,0.08)"/><circle cx="128" cy="568" r="1.5" fill="rgba(10,22,31,0.08)"/><circle cx="172" cy="568" r="1.5" fill="rgba(10,22,31,0.08)"/><circle cx="216" cy="568" r="1.5" fill="rgba(10,22,31,0.08)"/><circle cx="260" cy="568" r="1.5" fill="rgba(10,22,31,0.08)"/><circle cx="304" cy="568" r="1.5" fill="rgba(10,22,31,0.08)"/><circle cx="348" cy="568" r="1.5" fill="rgba(10,22,31,0.08)"/><circle cx="392" cy="568" r="1.5" fill="rgba(10,22,31,0.08)"/><circle cx="436" cy="568" r="1.5" fill="rgba(10,22,31,0.08)"/><circle cx="480" cy="568" r="1.5" fill="rgba(10,22,31,0.08)"/><circle cx="524" cy="568" r="1.5" fill="rgba(10,22,31,0.08)"/><circle cx="568" cy="568" r="1.5" fill="rgba(10,22,31,0.08)"/><circle cx="612" cy="568" r="1.5" fill="rgba(10,22,31,0.08)"/><circle cx="656" cy="568" r="1.5" fill="rgba(10,22,31,0.08)"/><circle cx="700" cy="568" r="1.5" fill="rgba(10,22,31,0.08)"/><circle cx="744" cy="568" r="1.5" fill="rgba(10,22,31,0.08)"/><circle cx="788" cy="568" r="1.5" fill="rgba(10,22,31,0.08)"/><circle cx="832" cy="568" r="1.5" fill="rgba(10,22,31,0.08)"/><circle cx="876" cy="568" r="1.5" fill="rgba(10,22,31,0.08)"/><circle cx="920" cy="568" r="1.5" fill="rgba(10,22,31,0.08)"/><circle cx="964" cy="568" r="1.5" fill="rgba(10,22,31,0.08)"/><circle cx="1008" cy="568" r="1.5" fill="rgba(10,22,31,0.08)"/><circle cx="1052" cy="568" r="1.5" fill="rgba(10,22,31,0.08)"/><circle cx="1096" cy="568" r="1.5" fill="rgba(10,22,31,0.08)"/><circle cx="1140" cy="568" r="1.5" fill="rgba(10,22,31,0.08)"/><circle cx="1184" cy="568" r="1.5" fill="rgba(10,22,31,0.08)"/><circle cx="1228" cy="568" r="1.5" fill="rgba(10,22,31,0.08)"/><circle cx="1272" cy="568" r="1.5" fill="rgba(10,22,31,0.08)"/><circle cx="1316" cy="568" r="1.5" fill="rgba(10,22,31,0.08)"/><circle cx="1360" cy="568" r="1.5" fill="rgba(10,22,31,0.08)"/><circle cx="1404" cy="568" r="1.5" fill="rgba(10,22,31,0.08)"/><circle cx="1448" cy="568" r="1.5" fill="rgba(10,22,31,0.08)"/><circle cx="1492" cy="568" r="1.5" fill="rgba(10,22,31,0.08)"/><circle cx="1536" cy="568" r="1.5" fill="rgba(10,22,31,0.08)"/><circle cx="1580" cy="568" r="1.5" fill="rgba(10,22,31,0.08)"/><circle cx="1624" cy="568" r="1.5" fill="rgba(10,22,31,0.08)"/><circle cx="40" cy="612" r="1.5" fill="rgba(10,22,31,0.08)"/><circle cx="84" cy="612" r="1.5" fill="rgba(10,22,31,0.08)"/><circle cx="128" cy="612" r="1.5" fill="rgba(10,22,31,0.08)"/><circle cx="172" cy="612" r="1.5" fill="rgba(10,22,31,0.08)"/><circle cx="216" cy="612" r="1.5" fill="rgba(10,22,31,0.08)"/><circle cx="260" cy="612" r="1.5" fill="rgba(10,22,31,0.08)"/><circle cx="304" cy="612" r="1.5" fill="rgba(10,22,31,0.08)"/><circle cx="348" cy="612" r="1.5" fill="rgba(10,22,31,0.08)"/><circle cx="392" cy="612" r="1.5" fill="rgba(10,22,31,0.08)"/><circle cx="436" cy="612" r="1.5" fill="rgba(10,22,31,0.08)"/><circle cx="480" cy="612" r="1.5" fill="rgba(10,22,31,0.08)"/><circle cx="524" cy="612" r="1.5" fill="rgba(10,22,31,0.08)"/><circle cx="568" cy="612" r="1.5" fill="rgba(10,22,31,0.08)"/><circle cx="612" cy="612" r="1.5" fill="rgba(10,22,31,0.08)"/><circle cx="656" cy="612" r="1.5" fill="rgba(10,22,31,0.08)"/><circle cx="700" cy="612" r="1.5" fill="rgba(10,22,31,0.08)"/><circle cx="744" cy="612" r="1.5" fill="rgba(10,22,31,0.08)"/><circle cx="788" cy="612" r="1.5" fill="rgba(10,22,31,0.08)"/><circle cx="832" cy="612" r="1.5" fill="rgba(10,22,31,0.08)"/><circle cx="876" cy="612" r="1.5" fill="rgba(10,22,31,0.08)"/><circle cx="920" cy="612" r="1.5" fill="rgba(10,22,31,0.08)"/><circle cx="964" cy="612" r="1.5" fill="rgba(10,22,31,0.08)"/><circle cx="1008" cy="612" r="1.5" fill="rgba(10,22,31,0.08)"/><circle cx="1052" cy="612" r="1.5" fill="rgba(10,22,31,0.08)"/><circle cx="1096" cy="612" r="1.5" fill="rgba(10,22,31,0.08)"/><circle cx="1140" cy="612" r="1.5" fill="rgba(10,22,31,0.08)"/><circle cx="1184" cy="612" r="1.5" fill="rgba(10,22,31,0.08)"/><circle cx="1228" cy="612" r="1.5" fill="rgba(10,22,31,0.08)"/><circle cx="1272" cy="612" r="1.5" fill="rgba(10,22,31,0.08)"/><circle cx="1316" cy="612" r="1.5" fill="rgba(10,22,31,0.08)"/><circle cx="1360" cy="612" r="1.5" fill="rgba(10,22,31,0.08)"/><circle cx="1404" cy="612" r="1.5" fill="rgba(10,22,31,0.08)"/><circle cx="1448" cy="612" r="1.5" fill="rgba(10,22,31,0.08)"/><circle cx="1492" cy="612" r="1.5" fill="rgba(10,22,31,0.08)"/><circle cx="1536" cy="612" r="1.5" fill="rgba(10,22,31,0.08)"/><circle cx="1580" cy="612" r="1.5" fill="rgba(10,22,31,0.08)"/><circle cx="1624" cy="612" r="1.5" fill="rgba(10,22,31,0.08)"/><circle cx="40" cy="656" r="1.5" fill="rgba(10,22,31,0.08)"/><circle cx="84" cy="656" r="1.5" fill="rgba(10,22,31,0.08)"/><circle cx="128" cy="656" r="1.5" fill="rgba(10,22,31,0.08)"/><circle cx="172" cy="656" r="1.5" fill="rgba(10,22,31,0.08)"/><circle cx="216" cy="656" r="1.5" fill="rgba(10,22,31,0.08)"/><circle cx="260" cy="656" r="1.5" fill="rgba(10,22,31,0.08)"/><circle cx="304" cy="656" r="1.5" fill="rgba(10,22,31,0.08)"/><circle cx="348" cy="656" r="1.5" fill="rgba(10,22,31,0.08)"/><circle cx="392" cy="656" r="1.5" fill="rgba(10,22,31,0.08)"/><circle cx="436" cy="656" r="1.5" fill="rgba(10,22,31,0.08)"/><circle cx="480" cy="656" r="1.5" fill="rgba(10,22,31,0.08)"/><circle cx="524" cy="656" r="1.5" fill="rgba(10,22,31,0.08)"/><circle cx="568" cy="656" r="1.5" fill="rgba(10,22,31,0.08)"/><circle cx="612" cy="656" r="1.5" fill="rgba(10,22,31,0.08)"/><circle cx="656" cy="656" r="1.5" fill="rgba(10,22,31,0.08)"/><circle cx="700" cy="656" r="1.5" fill="rgba(10,22,31,0.08)"/><circle cx="744" cy="656" r="1.5" fill="rgba(10,22,31,0.08)"/><circle cx="788" cy="656" r="1.5" fill="rgba(10,22,31,0.08)"/><circle cx="832" cy="656" r="1.5" fill="rgba(10,22,31,0.08)"/><circle cx="876" cy="656" r="1.5" fill="rgba(10,22,31,0.08)"/><circle cx="920" cy="656" r="1.5" fill="rgba(10,22,31,0.08)"/><circle cx="964" cy="656" r="1.5" fill="rgba(10,22,31,0.08)"/><circle cx="1008" cy="656" r="1.5" fill="rgba(10,22,31,0.08)"/><circle cx="1052" cy="656" r="1.5" fill="rgba(10,22,31,0.08)"/><circle cx="1096" cy="656" r="1.5" fill="rgba(10,22,31,0.08)"/><circle cx="1140" cy="656" r="1.5" fill="rgba(10,22,31,0.08)"/><circle cx="1184" cy="656" r="1.5" fill="rgba(10,22,31,0.08)"/><circle cx="1228" cy="656" r="1.5" fill="rgba(10,22,31,0.08)"/><circle cx="1272" cy="656" r="1.5" fill="rgba(10,22,31,0.08)"/><circle cx="1316" cy="656" r="1.5" fill="rgba(10,22,31,0.08)"/><circle cx="1360" cy="656" r="1.5" fill="rgba(10,22,31,0.08)"/><circle cx="1404" cy="656" r="1.5" fill="rgba(10,22,31,0.08)"/><circle cx="1448" cy="656" r="1.5" fill="rgba(10,22,31,0.08)"/><circle cx="1492" cy="656" r="1.5" fill="rgba(10,22,31,0.08)"/><circle cx="1536" cy="656" r="1.5" fill="rgba(10,22,31,0.08)"/><circle cx="1580" cy="656" r="1.5" fill="rgba(10,22,31,0.08)"/><circle cx="1624" cy="656" r="1.5" fill="rgba(10,22,31,0.08)"/><path d="M225.15 640 L233.25 280 L246.75 280 L254.85 640 Z" fill="#0A161F"/><g transform="rotate(10 240 280)"><path d="M230.55 280 q-3 -40.5 0 -135.0 q2 -35.1 7 -35.1 q5 0 7 35.1 q3 94.5 0 135.0 Z" fill="#0A161F"/></g><g transform="rotate(130 240 280)"><path d="M230.55 280 q-3 -40.5 0 -135.0 q2 -35.1 7 -35.1 q5 0 7 35.1 q3 94.5 0 135.0 Z" fill="#0A161F"/></g><g transform="rotate(250 240 280)"><path d="M230.55 280 q-3 -40.5 0 -135.0 q2 -35.1 7 -35.1 q5 0 7 35.1 q3 94.5 0 135.0 Z" fill="#0A161F"/></g><circle cx="240" cy="280" r="17.55" fill="#FFB454"/><circle cx="240" cy="280" r="7.425000000000001" fill="#0A161F"/><path d="M460.65 640 L465.75 380 L474.25 380 L479.35 640 Z" fill="#0A161F"/><g transform="rotate(52 470 380)"><path d="M464.05 380 q-3 -25.5 0 -85.0 q2 -22.099999999999998 7 -22.099999999999998 q5 0 7 22.099999999999998 q3 59.5 0 85.0 Z" fill="#0A161F"/></g><g transform="rotate(172 470 380)"><path d="M464.05 380 q-3 -25.5 0 -85.0 q2 -22.099999999999998 7 -22.099999999999998 q5 0 7 22.099999999999998 q3 59.5 0 85.0 Z" fill="#0A161F"/></g><g transform="rotate(292 470 380)"><path d="M464.05 380 q-3 -25.5 0 -85.0 q2 -22.099999999999998 7 -22.099999999999998 q5 0 7 22.099999999999998 q3 59.5 0 85.0 Z" fill="#0A161F"/></g><circle cx="470" cy="380" r="11.049999999999999" fill="#FFB454"/><circle cx="470" cy="380" r="4.675" fill="#0A161F"/><path d="M330 214.0 a 110 110 0 0 1 0 132.0" fill="none" stroke="#0B7A66" stroke-width="3" opacity="0.5"/><path d="M330 187.0 a 155 155 0 0 1 0 186.0" fill="none" stroke="#0B7A66" stroke-width="3" opacity="0.3"/><path d="M330 160.0 a 200 200 0 0 1 0 240.0" fill="none" stroke="#0B7A66" stroke-width="3" opacity="0.18"/><rect x="160" y="520" width="130" height="56" rx="12" fill="#0A161F" stroke="#0A161F" stroke-width="1.5" /><circle cx="186" cy="548" r="6" fill="#2BD9A9"/><rect x="202" y="542" width="62" height="10" rx="5.0" fill="rgba(255,255,255,0.22)"/><path d="M290 548 q60 20 120 -30" stroke="rgba(10,22,31,0.3)" stroke-width="2" fill="none" stroke-dasharray="2 8" stroke-linecap="round"/><rect x="640" y="120" width="560" height="380" rx="18" fill="#fff" stroke="rgba(10,22,31,0.3)" stroke-width="2" /><rect x="672" y="152" width="200" height="12" rx="6.0" fill="#D8DDD6"/><rect x="672" y="176" width="120" height="9" rx="4.5" fill="#EEF0EA"/><rect x="672" y="400" width="22" height="40" rx="7" fill="#D8DDD6"/><rect x="708" y="374" width="22" height="66" rx="7" fill="rgba(11,122,102,0.4)"/><rect x="744" y="388" width="22" height="52" rx="7" fill="#D8DDD6"/><rect x="780" y="350" width="22" height="90" rx="7" fill="rgba(11,122,102,0.4)"/><rect x="816" y="366" width="22" height="74" rx="7" fill="#D8DDD6"/><rect x="852" y="320" width="22" height="120" rx="7" fill="rgba(11,122,102,0.4)"/><rect x="888" y="344" width="22" height="96" rx="7" fill="#D8DDD6"/><rect x="924" y="290" width="22" height="150" rx="7" fill="#FFB454"/><rect x="960" y="322" width="22" height="118" rx="7" fill="#D8DDD6"/><rect x="996" y="352" width="22" height="88" rx="7" fill="rgba(11,122,102,0.4)"/><rect x="1032" y="308" width="22" height="132" rx="7" fill="#D8DDD6"/><rect x="1068" y="370" width="22" height="70" rx="7" fill="rgba(11,122,102,0.4)"/><rect x="1104" y="386" width="22" height="54" rx="7" fill="#D8DDD6"/><rect x="1140" y="396" width="22" height="44" rx="7" fill="rgba(11,122,102,0.4)"/><line x1="672" y1="290" x2="1168" y2="290" stroke="#FFB454" stroke-width="2" stroke-dasharray="7 7" opacity="0.7"/><rect x="1240" y="120" width="350" height="170" rx="18" fill="#0A161F" stroke="#0A161F" stroke-width="1.5" /><path d="M1286 214 l16 -28 l16 28 Z" fill="none" stroke="#FFB454" stroke-width="3" stroke-linejoin="round"/><line x1="1302" y1="196" x2="1302" y2="205" stroke="#FFB454" stroke-width="3" stroke-linecap="round"/><rect x="1330" y="182" width="170" height="12" rx="6.0" fill="rgba(255,255,255,0.22)"/><rect x="1330" y="206" width="120" height="9" rx="4.5" fill="rgba(255,255,255,0.14)"/><rect x="1272" y="248" width="150" height="26" rx="13" fill="rgba(255,180,84,0.3)"/><rect x="1240" y="330" width="350" height="170" rx="18" fill="#fff" stroke="rgba(10,22,31,0.3)" stroke-width="2" /><rect x="1272" y="360" width="140" height="12" rx="6.0" fill="#D8DDD6"/><path d="M1272 430 Q1289.0 404 1306.0 430 T1340 430 Q1357.0 404 1374.0 430 T1408 430 Q1425.0 404 1442.0 430 T1476 430 Q1493.0 404 1510.0 430 T1544 430" fill="none" stroke="#0B7A66" stroke-width="3.5" opacity="1.0" stroke-linecap="round"/><path d="M1272 452 Q1283.0 440 1294.0 452 T1316 452 Q1327.0 440 1338.0 452 T1360 452 Q1371.0 440 1382.0 452 T1404 452 Q1415.0 440 1426.0 452 T1448 452 Q1459.0 440 1470.0 452 T1492 452 Q1503.0 440 1514.0 452 T1536 452" fill="none" stroke="#2BD9A9" stroke-width="2" opacity="0.7" stroke-linecap="round"/></svg>
