<svg xmlns="http://www.w3.org/2000/svg" viewBox="0 0 1200 900" width="1200" height="900" role="img" aria-hidden="true"><rect x="0" y="0" width="1200" height="900" rx="28" fill="#151A26" stroke="rgba(20,25,38,0.1)" stroke-width="2" /><circle cx="40" cy="40" r="1.6" fill="rgba(20,25,38,0.05)"/><circle cx="80" cy="40" r="1.6" fill="rgba(20,25,38,0.05)"/><circle cx="120" cy="40" r="1.6" fill="rgba(20,25,38,0.05)"/><circle cx="160" cy="40" r="1.6" fill="rgba(20,25,38,0.05)"/><circle cx="200" cy="40" r="1.6" fill="rgba(20,25,38,0.05)"/><circle cx="240" cy="40" r="1.6" fill="rgba(20,25,38,0.05)"/><circle cx="280" cy="40" r="1.6" fill="rgba(20,25,38,0.05)"/><circle cx="320" cy="40" r="1.6" fill="rgba(20,25,38,0.05)"/><circle cx="360" cy="40" r="1.6" fill="rgba(20,25,38,0.05)"/><circle cx="400" cy="40" r="1.6" fill="rgba(20,25,38,0.05)"/><circle cx="440" cy="40" r="1.6" fill="rgba(20,25,38,0.05)"/><circle cx="480" cy="40" r="1.6" fill="rgba(20,25,38,0.05)"/><circle cx="520" cy="40" r="1.6" fill="rgba(20,25,38,0.05)"/><circle cx="560" cy="40" r="1.6" fill="rgba(20,25,38,0.05)"/><circle cx="600" cy="40" r="1.6" fill="rgba(20,25,38,0.05)"/><circle cx="640" cy="40" r="1.6" fill="rgba(20,25,38,0.05)"/><circle cx="680" cy="40" r="1.6" fill="rgba(20,25,38,0.05)"/><circle cx="720" cy="40" r="1.6" fill="rgba(20,25,38,0.05)"/><circle cx="760" cy="40" r="1.6" fill="rgba(20,25,38,0.05)"/><circle cx="800" cy="40" r="1.6" fill="rgba(20,25,38,0.05)"/><circle cx="840" cy="40" r="1.6" fill="rgba(20,25,38,0.05)"/><circle cx="880" cy="40" r="1.6" fill="rgba(20,25,38,0.05)"/><circle cx="920" cy="40" r="1.6" fill="rgba(20,25,38,0.05)"/><circle cx="960" cy="40" r="1.6" fill="rgba(20,25,38,0.05)"/><circle cx="1000" cy="40" r="1.6" fill="rgba(20,25,38,0.05)"/><circle cx="1040" cy="40" r="1.6" fill="rgba(20,25,38,0.05)"/><circle cx="1080" cy="40" r="1.6" fill="rgba(20,25,38,0.05)"/><circle cx="1120" cy="40" r="1.6" fill="rgba(20,25,38,0.05)"/><circle cx="1160" cy="40" r="1.6" fill="rgba(20,25,38,0.05)"/><circle cx="40" cy="80" r="1.6" fill="rgba(20,25,38,0.05)"/><circle cx="80" cy="80" r="1.6" fill="rgba(20,25,38,0.05)"/><circle cx="120" cy="80" r="1.6" fill="rgba(20,25,38,0.05)"/><circle cx="160" cy="80" r="1.6" fill="rgba(20,25,38,0.05)"/><circle cx="200" cy="80" r="1.6" fill="rgba(20,25,38,0.05)"/><circle cx="240" cy="80" r="1.6" fill="rgba(20,25,38,0.05)"/><circle cx="280" cy="80" r="1.6" fill="rgba(20,25,38,0.05)"/><circle cx="320" cy="80" r="1.6" fill="rgba(20,25,38,0.05)"/><circle cx="360" cy="80" r="1.6" fill="rgba(20,25,38,0.05)"/><circle cx="400" cy="80" r="1.6" fill="rgba(20,25,38,0.05)"/><circle cx="440" cy="80" r="1.6" fill="rgba(20,25,38,0.05)"/><circle cx="480" cy="80" r="1.6" fill="rgba(20,25,38,0.05)"/><circle cx="520" cy="80" r="1.6" fill="rgba(20,25,38,0.05)"/><circle cx="560" cy="80" r="1.6" fill="rgba(20,25,38,0.05)"/><circle cx="600" cy="80" r="1.6" fill="rgba(20,25,38,0.05)"/><circle cx="640" cy="80" r="1.6" fill="rgba(20,25,38,0.05)"/><circle cx="680" cy="80" r="1.6" fill="rgba(20,25,38,0.05)"/><circle cx="720" cy="80" r="1.6" fill="rgba(20,25,38,0.05)"/><circle cx="760" cy="80" r="1.6" fill="rgba(20,25,38,0.05)"/><circle cx="800" cy="80" r="1.6" fill="rgba(20,25,38,0.05)"/><circle cx="840" cy="80" r="1.6" fill="rgba(20,25,38,0.05)"/><circle cx="880" cy="80" r="1.6" fill="rgba(20,25,38,0.05)"/><circle cx="920" cy="80" r="1.6" fill="rgba(20,25,38,0.05)"/><circle cx="960" cy="80" r="1.6" fill="rgba(20,25,38,0.05)"/><circle cx="1000" cy="80" r="1.6" fill="rgba(20,25,38,0.05)"/><circle cx="1040" cy="80" r="1.6" fill="rgba(20,25,38,0.05)"/><circle cx="1080" cy="80" r="1.6" fill="rgba(20,25,38,0.05)"/><circle cx="1120" cy="80" r="1.6" fill="rgba(20,25,38,0.05)"/><circle cx="1160" cy="80" r="1.6" fill="rgba(20,25,38,0.05)"/><circle cx="40" cy="120" r="1.6" fill="rgba(20,25,38,0.05)"/><circle cx="80" cy="120" r="1.6" fill="rgba(20,25,38,0.05)"/><circle cx="120" cy="120" r="1.6" fill="rgba(20,25,38,0.05)"/><circle cx="160" cy="120" r="1.6" fill="rgba(20,25,38,0.05)"/><circle cx="200" cy="120" r="1.6" fill="rgba(20,25,38,0.05)"/><circle cx="240" cy="120" r="1.6" fill="rgba(20,25,38,0.05)"/><circle cx="280" cy="120" r="1.6" fill="rgba(20,25,38,0.05)"/><circle cx="320" cy="120" r="1.6" fill="rgba(20,25,38,0.05)"/><circle cx="360" cy="120" r="1.6" fill="rgba(20,25,38,0.05)"/><circle cx="400" cy="120" r="1.6" fill="rgba(20,25,38,0.05)"/><circle cx="440" cy="120" r="1.6" fill="rgba(20,25,38,0.05)"/><circle cx="480" cy="120" r="1.6" fill="rgba(20,25,38,0.05)"/><circle cx="520" cy="120" r="1.6" fill="rgba(20,25,38,0.05)"/><circle cx="560" cy="120" r="1.6" fill="rgba(20,25,38,0.05)"/><circle cx="600" cy="120" r="1.6" fill="rgba(20,25,38,0.05)"/><circle cx="640" cy="120" r="1.6" fill="rgba(20,25,38,0.05)"/><circle cx="680" cy="120" r="1.6" fill="rgba(20,25,38,0.05)"/><circle cx="720" cy="120" r="1.6" fill="rgba(20,25,38,0.05)"/><circle cx="760" cy="120" r="1.6" fill="rgba(20,25,38,0.05)"/><circle cx="800" cy="120" r="1.6" fill="rgba(20,25,38,0.05)"/><circle cx="840" cy="120" r="1.6" fill="rgba(20,25,38,0.05)"/><circle cx="880" cy="120" r="1.6" fill="rgba(20,25,38,0.05)"/><circle cx="920" cy="120" r="1.6" fill="rgba(20,25,38,0.05)"/><circle cx="960" cy="120" r="1.6" fill="rgba(20,25,38,0.05)"/><circle cx="1000" cy="120" r="1.6" fill="rgba(20,25,38,0.05)"/><circle cx="1040" cy="120" r="1.6" fill="rgba(20,25,38,0.05)"/><circle cx="1080" cy="120" r="1.6" fill="rgba(20,25,38,0.05)"/><circle cx="1120" cy="120" r="1.6" fill="rgba(20,25,38,0.05)"/><circle cx="1160" cy="120" r="1.6" fill="rgba(20,25,38,0.05)"/><circle cx="40" cy="160" r="1.6" fill="rgba(20,25,38,0.05)"/><circle cx="80" cy="160" r="1.6" fill="rgba(20,25,38,0.05)"/><circle cx="120" cy="160" r="1.6" fill="rgba(20,25,38,0.05)"/><circle cx="160" cy="160" r="1.6" fill="rgba(20,25,38,0.05)"/><circle cx="200" cy="160" r="1.6" fill="rgba(20,25,38,0.05)"/><circle cx="240" cy="160" r="1.6" fill="rgba(20,25,38,0.05)"/><circle cx="280" cy="160" r="1.6" fill="rgba(20,25,38,0.05)"/><circle cx="320" cy="160" r="1.6" fill="rgba(20,25,38,0.05)"/><circle cx="360" cy="160" r="1.6" fill="rgba(20,25,38,0.05)"/><circle cx="400" cy="160" r="1.6" fill="rgba(20,25,38,0.05)"/><circle cx="440" cy="160" r="1.6" fill="rgba(20,25,38,0.05)"/><circle cx="480" cy="160" r="1.6" fill="rgba(20,25,38,0.05)"/><circle cx="520" cy="160" r="1.6" fill="rgba(20,25,38,0.05)"/><circle cx="560" cy="160" r="1.6" fill="rgba(20,25,38,0.05)"/><circle cx="600" cy="160" r="1.6" fill="rgba(20,25,38,0.05)"/><circle cx="640" cy="160" r="1.6" fill="rgba(20,25,38,0.05)"/><circle cx="680" cy="160" r="1.6" fill="rgba(20,25,38,0.05)"/><circle cx="720" cy="160" r="1.6" fill="rgba(20,25,38,0.05)"/><circle cx="760" cy="160" r="1.6" fill="rgba(20,25,38,0.05)"/><circle cx="800" cy="160" r="1.6" fill="rgba(20,25,38,0.05)"/><circle cx="840" cy="160" r="1.6" fill="rgba(20,25,38,0.05)"/><circle cx="880" cy="160" r="1.6" fill="rgba(20,25,38,0.05)"/><circle cx="920" cy="160" r="1.6" fill="rgba(20,25,38,0.05)"/><circle cx="960" cy="160" r="1.6" fill="rgba(20,25,38,0.05)"/><circle cx="1000" cy="160" r="1.6" fill="rgba(20,25,38,0.05)"/><circle cx="1040" cy="160" r="1.6" fill="rgba(20,25,38,0.05)"/><circle cx="1080" cy="160" r="1.6" fill="rgba(20,25,38,0.05)"/><circle cx="1120" cy="160" r="1.6" fill="rgba(20,25,38,0.05)"/><circle cx="1160" cy="160" r="1.6" fill="rgba(20,25,38,0.05)"/><circle cx="40" cy="200" r="1.6" fill="rgba(20,25,38,0.05)"/><circle cx="80" cy="200" r="1.6" fill="rgba(20,25,38,0.05)"/><circle cx="120" cy="200" r="1.6" fill="rgba(20,25,38,0.05)"/><circle cx="160" cy="200" r="1.6" fill="rgba(20,25,38,0.05)"/><circle cx="200" cy="200" r="1.6" fill="rgba(20,25,38,0.05)"/><circle cx="240" cy="200" r="1.6" fill="rgba(20,25,38,0.05)"/><circle cx="280" cy="200" r="1.6" fill="rgba(20,25,38,0.05)"/><circle cx="320" cy="200" r="1.6" fill="rgba(20,25,38,0.05)"/><circle cx="360" cy="200" r="1.6" fill="rgba(20,25,38,0.05)"/><circle cx="400" cy="200" r="1.6" fill="rgba(20,25,38,0.05)"/><circle cx="440" cy="200" r="1.6" fill="rgba(20,25,38,0.05)"/><circle cx="480" cy="200" r="1.6" fill="rgba(20,25,38,0.05)"/><circle cx="520" cy="200" r="1.6" fill="rgba(20,25,38,0.05)"/><circle cx="560" cy="200" r="1.6" fill="rgba(20,25,38,0.05)"/><circle cx="600" cy="200" r="1.6" fill="rgba(20,25,38,0.05)"/><circle cx="640" cy="200" r="1.6" fill="rgba(20,25,38,0.05)"/><circle cx="680" cy="200" r="1.6" fill="rgba(20,25,38,0.05)"/><circle cx="720" cy="200" r="1.6" fill="rgba(20,25,38,0.05)"/><circle cx="760" cy="200" r="1.6" fill="rgba(20,25,38,0.05)"/><circle cx="800" cy="200" r="1.6" fill="rgba(20,25,38,0.05)"/><circle cx="840" cy="200" r="1.6" fill="rgba(20,25,38,0.05)"/><circle cx="880" cy="200" r="1.6" fill="rgba(20,25,38,0.05)"/><circle cx="920" cy="200" r="1.6" fill="rgba(20,25,38,0.05)"/><circle cx="960" cy="200" r="1.6" fill="rgba(20,25,38,0.05)"/><circle cx="1000" cy="200" r="1.6" fill="rgba(20,25,38,0.05)"/><circle cx="1040" cy="200" r="1.6" fill="rgba(20,25,38,0.05)"/><circle cx="1080" cy="200" r="1.6" fill="rgba(20,25,38,0.05)"/><circle cx="1120" cy="200" r="1.6" fill="rgba(20,25,38,0.05)"/><circle cx="1160" cy="200" r="1.6" fill="rgba(20,25,38,0.05)"/><circle cx="40" cy="240" r="1.6" fill="rgba(20,25,38,0.05)"/><circle cx="80" cy="240" r="1.6" fill="rgba(20,25,38,0.05)"/><circle cx="120" cy="240" r="1.6" fill="rgba(20,25,38,0.05)"/><circle cx="160" cy="240" r="1.6" fill="rgba(20,25,38,0.05)"/><circle cx="200" cy="240" r="1.6" fill="rgba(20,25,38,0.05)"/><circle cx="240" cy="240" r="1.6" fill="rgba(20,25,38,0.05)"/><circle cx="280" cy="240" r="1.6" fill="rgba(20,25,38,0.05)"/><circle cx="320" cy="240" r="1.6" fill="rgba(20,25,38,0.05)"/><circle cx="360" cy="240" r="1.6" fill="rgba(20,25,38,0.05)"/><circle cx="400" cy="240" r="1.6" fill="rgba(20,25,38,0.05)"/><circle cx="440" cy="240" r="1.6" fill="rgba(20,25,38,0.05)"/><circle cx="480" cy="240" r="1.6" fill="rgba(20,25,38,0.05)"/><circle cx="520" cy="240" r="1.6" fill="rgba(20,25,38,0.05)"/><circle cx="560" cy="240" r="1.6" fill="rgba(20,25,38,0.05)"/><circle cx="600" cy="240" r="1.6" fill="rgba(20,25,38,0.05)"/><circle cx="640" cy="240" r="1.6" fill="rgba(20,25,38,0.05)"/><circle cx="680" cy="240" r="1.6" fill="rgba(20,25,38,0.05)"/><circle cx="720" cy="240" r="1.6" fill="rgba(20,25,38,0.05)"/><circle cx="760" cy="240" r="1.6" fill="rgba(20,25,38,0.05)"/><circle cx="800" cy="240" r="1.6" fill="rgba(20,25,38,0.05)"/><circle cx="840" cy="240" r="1.6" fill="rgba(20,25,38,0.05)"/><circle cx="880" cy="240" r="1.6" fill="rgba(20,25,38,0.05)"/><circle cx="920" cy="240" r="1.6" fill="rgba(20,25,38,0.05)"/><circle cx="960" cy="240" r="1.6" fill="rgba(20,25,38,0.05)"/><circle cx="1000" cy="240" r="1.6" fill="rgba(20,25,38,0.05)"/><circle cx="1040" cy="240" r="1.6" fill="rgba(20,25,38,0.05)"/><circle cx="1080" cy="240" r="1.6" fill="rgba(20,25,38,0.05)"/><circle cx="1120" cy="240" r="1.6" fill="rgba(20,25,38,0.05)"/><circle cx="1160" cy="240" r="1.6" fill="rgba(20,25,38,0.05)"/><circle cx="40" cy="280" r="1.6" fill="rgba(20,25,38,0.05)"/><circle cx="80" cy="280" r="1.6" fill="rgba(20,25,38,0.05)"/><circle cx="120" cy="280" r="1.6" fill="rgba(20,25,38,0.05)"/><circle cx="160" cy="280" r="1.6" fill="rgba(20,25,38,0.05)"/><circle cx="200" cy="280" r="1.6" fill="rgba(20,25,38,0.05)"/><circle cx="240" cy="280" r="1.6" fill="rgba(20,25,38,0.05)"/><circle cx="280" cy="280" r="1.6" fill="rgba(20,25,38,0.05)"/><circle cx="320" cy="280" r="1.6" fill="rgba(20,25,38,0.05)"/><circle cx="360" cy="280" r="1.6" fill="rgba(20,25,38,0.05)"/><circle cx="400" cy="280" r="1.6" fill="rgba(20,25,38,0.05)"/><circle cx="440" cy="280" r="1.6" fill="rgba(20,25,38,0.05)"/><circle cx="480" cy="280" r="1.6" fill="rgba(20,25,38,0.05)"/><circle cx="520" cy="280" r="1.6" fill="rgba(20,25,38,0.05)"/><circle cx="560" cy="280" r="1.6" fill="rgba(20,25,38,0.05)"/><circle cx="600" cy="280" r="1.6" fill="rgba(20,25,38,0.05)"/><circle cx="640" cy="280" r="1.6" fill="rgba(20,25,38,0.05)"/><circle cx="680" cy="280" r="1.6" fill="rgba(20,25,38,0.05)"/><circle cx="720" cy="280" r="1.6" fill="rgba(20,25,38,0.05)"/><circle cx="760" cy="280" r="1.6" fill="rgba(20,25,38,0.05)"/><circle cx="800" cy="280" r="1.6" fill="rgba(20,25,38,0.05)"/><circle cx="840" cy="280" r="1.6" fill="rgba(20,25,38,0.05)"/><circle cx="880" cy="280" r="1.6" fill="rgba(20,25,38,0.05)"/><circle cx="920" cy="280" r="1.6" fill="rgba(20,25,38,0.05)"/><circle cx="960" cy="280" r="1.6" fill="rgba(20,25,38,0.05)"/><circle cx="1000" cy="280" r="1.6" fill="rgba(20,25,38,0.05)"/><circle cx="1040" cy="280" r="1.6" fill="rgba(20,25,38,0.05)"/><circle cx="1080" cy="280" r="1.6" fill="rgba(20,25,38,0.05)"/><circle cx="1120" cy="280" r="1.6" fill="rgba(20,25,38,0.05)"/><circle cx="1160" cy="280" r="1.6" fill="rgba(20,25,38,0.05)"/><circle cx="40" cy="320" r="1.6" fill="rgba(20,25,38,0.05)"/><circle cx="80" cy="320" r="1.6" fill="rgba(20,25,38,0.05)"/><circle cx="120" cy="320" r="1.6" fill="rgba(20,25,38,0.05)"/><circle cx="160" cy="320" r="1.6" fill="rgba(20,25,38,0.05)"/><circle cx="200" cy="320" r="1.6" fill="rgba(20,25,38,0.05)"/><circle cx="240" cy="320" r="1.6" fill="rgba(20,25,38,0.05)"/><circle cx="280" cy="320" r="1.6" fill="rgba(20,25,38,0.05)"/><circle cx="320" cy="320" r="1.6" fill="rgba(20,25,38,0.05)"/><circle cx="360" cy="320" r="1.6" fill="rgba(20,25,38,0.05)"/><circle cx="400" cy="320" r="1.6" fill="rgba(20,25,38,0.05)"/><circle cx="440" cy="320" r="1.6" fill="rgba(20,25,38,0.05)"/><circle cx="480" cy="320" r="1.6" fill="rgba(20,25,38,0.05)"/><circle cx="520" cy="320" r="1.6" fill="rgba(20,25,38,0.05)"/><circle cx="560" cy="320" r="1.6" fill="rgba(20,25,38,0.05)"/><circle cx="600" cy="320" r="1.6" fill="rgba(20,25,38,0.05)"/><circle cx="640" cy="320" r="1.6" fill="rgba(20,25,38,0.05)"/><circle cx="680" cy="320" r="1.6" fill="rgba(20,25,38,0.05)"/><circle cx="720" cy="320" r="1.6" fill="rgba(20,25,38,0.05)"/><circle cx="760" cy="320" r="1.6" fill="rgba(20,25,38,0.05)"/><circle cx="800" cy="320" r="1.6" fill="rgba(20,25,38,0.05)"/><circle cx="840" cy="320" r="1.6" fill="rgba(20,25,38,0.05)"/><circle cx="880" cy="320" r="1.6" fill="rgba(20,25,38,0.05)"/><circle cx="920" cy="320" r="1.6" fill="rgba(20,25,38,0.05)"/><circle cx="960" cy="320" r="1.6" fill="rgba(20,25,38,0.05)"/><circle cx="1000" cy="320" r="1.6" fill="rgba(20,25,38,0.05)"/><circle cx="1040" cy="320" r="1.6" fill="rgba(20,25,38,0.05)"/><circle cx="1080" cy="320" r="1.6" fill="rgba(20,25,38,0.05)"/><circle cx="1120" cy="320" r="1.6" fill="rgba(20,25,38,0.05)"/><circle cx="1160" cy="320" r="1.6" fill="rgba(20,25,38,0.05)"/><circle cx="40" cy="360" r="1.6" fill="rgba(20,25,38,0.05)"/><circle cx="80" cy="360" r="1.6" fill="rgba(20,25,38,0.05)"/><circle cx="120" cy="360" r="1.6" fill="rgba(20,25,38,0.05)"/><circle cx="160" cy="360" r="1.6" fill="rgba(20,25,38,0.05)"/><circle cx="200" cy="360" r="1.6" fill="rgba(20,25,38,0.05)"/><circle cx="240" cy="360" r="1.6" fill="rgba(20,25,38,0.05)"/><circle cx="280" cy="360" r="1.6" fill="rgba(20,25,38,0.05)"/><circle cx="320" cy="360" r="1.6" fill="rgba(20,25,38,0.05)"/><circle cx="360" cy="360" r="1.6" fill="rgba(20,25,38,0.05)"/><circle cx="400" cy="360" r="1.6" fill="rgba(20,25,38,0.05)"/><circle cx="440" cy="360" r="1.6" fill="rgba(20,25,38,0.05)"/><circle cx="480" cy="360" r="1.6" fill="rgba(20,25,38,0.05)"/><circle cx="520" cy="360" r="1.6" fill="rgba(20,25,38,0.05)"/><circle cx="560" cy="360" r="1.6" fill="rgba(20,25,38,0.05)"/><circle cx="600" cy="360" r="1.6" fill="rgba(20,25,38,0.05)"/><circle cx="640" cy="360" r="1.6" fill="rgba(20,25,38,0.05)"/><circle cx="680" cy="360" r="1.6" fill="rgba(20,25,38,0.05)"/><circle cx="720" cy="360" r="1.6" fill="rgba(20,25,38,0.05)"/><circle cx="760" cy="360" r="1.6" fill="rgba(20,25,38,0.05)"/><circle cx="800" cy="360" r="1.6" fill="rgba(20,25,38,0.05)"/><circle cx="840" cy="360" r="1.6" fill="rgba(20,25,38,0.05)"/><circle cx="880" cy="360" r="1.6" fill="rgba(20,25,38,0.05)"/><circle cx="920" cy="360" r="1.6" fill="rgba(20,25,38,0.05)"/><circle cx="960" cy="360" r="1.6" fill="rgba(20,25,38,0.05)"/><circle cx="1000" cy="360" r="1.6" fill="rgba(20,25,38,0.05)"/><circle cx="1040" cy="360" r="1.6" fill="rgba(20,25,38,0.05)"/><circle cx="1080" cy="360" r="1.6" fill="rgba(20,25,38,0.05)"/><circle cx="1120" cy="360" r="1.6" fill="rgba(20,25,38,0.05)"/><circle cx="1160" cy="360" r="1.6" fill="rgba(20,25,38,0.05)"/><circle cx="40" cy="400" r="1.6" fill="rgba(20,25,38,0.05)"/><circle cx="80" cy="400" r="1.6" fill="rgba(20,25,38,0.05)"/><circle cx="120" cy="400" r="1.6" fill="rgba(20,25,38,0.05)"/><circle cx="160" cy="400" r="1.6" fill="rgba(20,25,38,0.05)"/><circle cx="200" cy="400" r="1.6" fill="rgba(20,25,38,0.05)"/><circle cx="240" cy="400" r="1.6" fill="rgba(20,25,38,0.05)"/><circle cx="280" cy="400" r="1.6" fill="rgba(20,25,38,0.05)"/><circle cx="320" cy="400" r="1.6" fill="rgba(20,25,38,0.05)"/><circle cx="360" cy="400" r="1.6" fill="rgba(20,25,38,0.05)"/><circle cx="400" cy="400" r="1.6" fill="rgba(20,25,38,0.05)"/><circle cx="440" cy="400" r="1.6" fill="rgba(20,25,38,0.05)"/><circle cx="480" cy="400" r="1.6" fill="rgba(20,25,38,0.05)"/><circle cx="520" cy="400" r="1.6" fill="rgba(20,25,38,0.05)"/><circle cx="560" cy="400" r="1.6" fill="rgba(20,25,38,0.05)"/><circle cx="600" cy="400" r="1.6" fill="rgba(20,25,38,0.05)"/><circle cx="640" cy="400" r="1.6" fill="rgba(20,25,38,0.05)"/><circle cx="680" cy="400" r="1.6" fill="rgba(20,25,38,0.05)"/><circle cx="720" cy="400" r="1.6" fill="rgba(20,25,38,0.05)"/><circle cx="760" cy="400" r="1.6" fill="rgba(20,25,38,0.05)"/><circle cx="800" cy="400" r="1.6" fill="rgba(20,25,38,0.05)"/><circle cx="840" cy="400" r="1.6" fill="rgba(20,25,38,0.05)"/><circle cx="880" cy="400" r="1.6" fill="rgba(20,25,38,0.05)"/><circle cx="920" cy="400" r="1.6" fill="rgba(20,25,38,0.05)"/><circle cx="960" cy="400" r="1.6" fill="rgba(20,25,38,0.05)"/><circle cx="1000" cy="400" r="1.6" fill="rgba(20,25,38,0.05)"/><circle cx="1040" cy="400" r="1.6" fill="rgba(20,25,38,0.05)"/><circle cx="1080" cy="400" r="1.6" fill="rgba(20,25,38,0.05)"/><circle cx="1120" cy="400" r="1.6" fill="rgba(20,25,38,0.05)"/><circle cx="1160" cy="400" r="1.6" fill="rgba(20,25,38,0.05)"/><circle cx="40" cy="440" r="1.6" fill="rgba(20,25,38,0.05)"/><circle cx="80" cy="440" r="1.6" fill="rgba(20,25,38,0.05)"/><circle cx="120" cy="440" r="1.6" fill="rgba(20,25,38,0.05)"/><circle cx="160" cy="440" r="1.6" fill="rgba(20,25,38,0.05)"/><circle cx="200" cy="440" r="1.6" fill="rgba(20,25,38,0.05)"/><circle cx="240" cy="440" r="1.6" fill="rgba(20,25,38,0.05)"/><circle cx="280" cy="440" r="1.6" fill="rgba(20,25,38,0.05)"/><circle cx="320" cy="440" r="1.6" fill="rgba(20,25,38,0.05)"/><circle cx="360" cy="440" r="1.6" fill="rgba(20,25,38,0.05)"/><circle cx="400" cy="440" r="1.6" fill="rgba(20,25,38,0.05)"/><circle cx="440" cy="440" r="1.6" fill="rgba(20,25,38,0.05)"/><circle cx="480" cy="440" r="1.6" fill="rgba(20,25,38,0.05)"/><circle cx="520" cy="440" r="1.6" fill="rgba(20,25,38,0.05)"/><circle cx="560" cy="440" r="1.6" fill="rgba(20,25,38,0.05)"/><circle cx="600" cy="440" r="1.6" fill="rgba(20,25,38,0.05)"/><circle cx="640" cy="440" r="1.6" fill="rgba(20,25,38,0.05)"/><circle cx="680" cy="440" r="1.6" fill="rgba(20,25,38,0.05)"/><circle cx="720" cy="440" r="1.6" fill="rgba(20,25,38,0.05)"/><circle cx="760" cy="440" r="1.6" fill="rgba(20,25,38,0.05)"/><circle cx="800" cy="440" r="1.6" fill="rgba(20,25,38,0.05)"/><circle cx="840" cy="440" r="1.6" fill="rgba(20,25,38,0.05)"/><circle cx="880" cy="440" r="1.6" fill="rgba(20,25,38,0.05)"/><circle cx="920" cy="440" r="1.6" fill="rgba(20,25,38,0.05)"/><circle cx="960" cy="440" r="1.6" fill="rgba(20,25,38,0.05)"/><circle cx="1000" cy="440" r="1.6" fill="rgba(20,25,38,0.05)"/><circle cx="1040" cy="440" r="1.6" fill="rgba(20,25,38,0.05)"/><circle cx="1080" cy="440" r="1.6" fill="rgba(20,25,38,0.05)"/><circle cx="1120" cy="440" r="1.6" fill="rgba(20,25,38,0.05)"/><circle cx="1160" cy="440" r="1.6" fill="rgba(20,25,38,0.05)"/><circle cx="40" cy="480" r="1.6" fill="rgba(20,25,38,0.05)"/><circle cx="80" cy="480" r="1.6" fill="rgba(20,25,38,0.05)"/><circle cx="120" cy="480" r="1.6" fill="rgba(20,25,38,0.05)"/><circle cx="160" cy="480" r="1.6" fill="rgba(20,25,38,0.05)"/><circle cx="200" cy="480" r="1.6" fill="rgba(20,25,38,0.05)"/><circle cx="240" cy="480" r="1.6" fill="rgba(20,25,38,0.05)"/><circle cx="280" cy="480" r="1.6" fill="rgba(20,25,38,0.05)"/><circle cx="320" cy="480" r="1.6" fill="rgba(20,25,38,0.05)"/><circle cx="360" cy="480" r="1.6" fill="rgba(20,25,38,0.05)"/><circle cx="400" cy="480" r="1.6" fill="rgba(20,25,38,0.05)"/><circle cx="440" cy="480" r="1.6" fill="rgba(20,25,38,0.05)"/><circle cx="480" cy="480" r="1.6" fill="rgba(20,25,38,0.05)"/><circle cx="520" cy="480" r="1.6" fill="rgba(20,25,38,0.05)"/><circle cx="560" cy="480" r="1.6" fill="rgba(20,25,38,0.05)"/><circle cx="600" cy="480" r="1.6" fill="rgba(20,25,38,0.05)"/><circle cx="640" cy="480" r="1.6" fill="rgba(20,25,38,0.05)"/><circle cx="680" cy="480" r="1.6" fill="rgba(20,25,38,0.05)"/><circle cx="720" cy="480" r="1.6" fill="rgba(20,25,38,0.05)"/><circle cx="760" cy="480" r="1.6" fill="rgba(20,25,38,0.05)"/><circle cx="800" cy="480" r="1.6" fill="rgba(20,25,38,0.05)"/><circle cx="840" cy="480" r="1.6" fill="rgba(20,25,38,0.05)"/><circle cx="880" cy="480" r="1.6" fill="rgba(20,25,38,0.05)"/><circle cx="920" cy="480" r="1.6" fill="rgba(20,25,38,0.05)"/><circle cx="960" cy="480" r="1.6" fill="rgba(20,25,38,0.05)"/><circle cx="1000" cy="480" r="1.6" fill="rgba(20,25,38,0.05)"/><circle cx="1040" cy="480" r="1.6" fill="rgba(20,25,38,0.05)"/><circle cx="1080" cy="480" r="1.6" fill="rgba(20,25,38,0.05)"/><circle cx="1120" cy="480" r="1.6" fill="rgba(20,25,38,0.05)"/><circle cx="1160" cy="480" r="1.6" fill="rgba(20,25,38,0.05)"/><circle cx="40" cy="520" r="1.6" fill="rgba(20,25,38,0.05)"/><circle cx="80" cy="520" r="1.6" fill="rgba(20,25,38,0.05)"/><circle cx="120" cy="520" r="1.6" fill="rgba(20,25,38,0.05)"/><circle cx="160" cy="520" r="1.6" fill="rgba(20,25,38,0.05)"/><circle cx="200" cy="520" r="1.6" fill="rgba(20,25,38,0.05)"/><circle cx="240" cy="520" r="1.6" fill="rgba(20,25,38,0.05)"/><circle cx="280" cy="520" r="1.6" fill="rgba(20,25,38,0.05)"/><circle cx="320" cy="520" r="1.6" fill="rgba(20,25,38,0.05)"/><circle cx="360" cy="520" r="1.6" fill="rgba(20,25,38,0.05)"/><circle cx="400" cy="520" r="1.6" fill="rgba(20,25,38,0.05)"/><circle cx="440" cy="520" r="1.6" fill="rgba(20,25,38,0.05)"/><circle cx="480" cy="520" r="1.6" fill="rgba(20,25,38,0.05)"/><circle cx="520" cy="520" r="1.6" fill="rgba(20,25,38,0.05)"/><circle cx="560" cy="520" r="1.6" fill="rgba(20,25,38,0.05)"/><circle cx="600" cy="520" r="1.6" fill="rgba(20,25,38,0.05)"/><circle cx="640" cy="520" r="1.6" fill="rgba(20,25,38,0.05)"/><circle cx="680" cy="520" r="1.6" fill="rgba(20,25,38,0.05)"/><circle cx="720" cy="520" r="1.6" fill="rgba(20,25,38,0.05)"/><circle cx="760" cy="520" r="1.6" fill="rgba(20,25,38,0.05)"/><circle cx="800" cy="520" r="1.6" fill="rgba(20,25,38,0.05)"/><circle cx="840" cy="520" r="1.6" fill="rgba(20,25,38,0.05)"/><circle cx="880" cy="520" r="1.6" fill="rgba(20,25,38,0.05)"/><circle cx="920" cy="520" r="1.6" fill="rgba(20,25,38,0.05)"/><circle cx="960" cy="520" r="1.6" fill="rgba(20,25,38,0.05)"/><circle cx="1000" cy="520" r="1.6" fill="rgba(20,25,38,0.05)"/><circle cx="1040" cy="520" r="1.6" fill="rgba(20,25,38,0.05)"/><circle cx="1080" cy="520" r="1.6" fill="rgba(20,25,38,0.05)"/><circle cx="1120" cy="520" r="1.6" fill="rgba(20,25,38,0.05)"/><circle cx="1160" cy="520" r="1.6" fill="rgba(20,25,38,0.05)"/><circle cx="40" cy="560" r="1.6" fill="rgba(20,25,38,0.05)"/><circle cx="80" cy="560" r="1.6" fill="rgba(20,25,38,0.05)"/><circle cx="120" cy="560" r="1.6" fill="rgba(20,25,38,0.05)"/><circle cx="160" cy="560" r="1.6" fill="rgba(20,25,38,0.05)"/><circle cx="200" cy="560" r="1.6" fill="rgba(20,25,38,0.05)"/><circle cx="240" cy="560" r="1.6" fill="rgba(20,25,38,0.05)"/><circle cx="280" cy="560" r="1.6" fill="rgba(20,25,38,0.05)"/><circle cx="320" cy="560" r="1.6" fill="rgba(20,25,38,0.05)"/><circle cx="360" cy="560" r="1.6" fill="rgba(20,25,38,0.05)"/><circle cx="400" cy="560" r="1.6" fill="rgba(20,25,38,0.05)"/><circle cx="440" cy="560" r="1.6" fill="rgba(20,25,38,0.05)"/><circle cx="480" cy="560" r="1.6" fill="rgba(20,25,38,0.05)"/><circle cx="520" cy="560" r="1.6" fill="rgba(20,25,38,0.05)"/><circle cx="560" cy="560" r="1.6" fill="rgba(20,25,38,0.05)"/><circle cx="600" cy="560" r="1.6" fill="rgba(20,25,38,0.05)"/><circle cx="640" cy="560" r="1.6" fill="rgba(20,25,38,0.05)"/><circle cx="680" cy="560" r="1.6" fill="rgba(20,25,38,0.05)"/><circle cx="720" cy="560" r="1.6" fill="rgba(20,25,38,0.05)"/><circle cx="760" cy="560" r="1.6" fill="rgba(20,25,38,0.05)"/><circle cx="800" cy="560" r="1.6" fill="rgba(20,25,38,0.05)"/><circle cx="840" cy="560" r="1.6" fill="rgba(20,25,38,0.05)"/><circle cx="880" cy="560" r="1.6" fill="rgba(20,25,38,0.05)"/><circle cx="920" cy="560" r="1.6" fill="rgba(20,25,38,0.05)"/><circle cx="960" cy="560" r="1.6" fill="rgba(20,25,38,0.05)"/><circle cx="1000" cy="560" r="1.6" fill="rgba(20,25,38,0.05)"/><circle cx="1040" cy="560" r="1.6" fill="rgba(20,25,38,0.05)"/><circle cx="1080" cy="560" r="1.6" fill="rgba(20,25,38,0.05)"/><circle cx="1120" cy="560" r="1.6" fill="rgba(20,25,38,0.05)"/><circle cx="1160" cy="560" r="1.6" fill="rgba(20,25,38,0.05)"/><circle cx="40" cy="600" r="1.6" fill="rgba(20,25,38,0.05)"/><circle cx="80" cy="600" r="1.6" fill="rgba(20,25,38,0.05)"/><circle cx="120" cy="600" r="1.6" fill="rgba(20,25,38,0.05)"/><circle cx="160" cy="600" r="1.6" fill="rgba(20,25,38,0.05)"/><circle cx="200" cy="600" r="1.6" fill="rgba(20,25,38,0.05)"/><circle cx="240" cy="600" r="1.6" fill="rgba(20,25,38,0.05)"/><circle cx="280" cy="600" r="1.6" fill="rgba(20,25,38,0.05)"/><circle cx="320" cy="600" r="1.6" fill="rgba(20,25,38,0.05)"/><circle cx="360" cy="600" r="1.6" fill="rgba(20,25,38,0.05)"/><circle cx="400" cy="600" r="1.6" fill="rgba(20,25,38,0.05)"/><circle cx="440" cy="600" r="1.6" fill="rgba(20,25,38,0.05)"/><circle cx="480" cy="600" r="1.6" fill="rgba(20,25,38,0.05)"/><circle cx="520" cy="600" r="1.6" fill="rgba(20,25,38,0.05)"/><circle cx="560" cy="600" r="1.6" fill="rgba(20,25,38,0.05)"/><circle cx="600" cy="600" r="1.6" fill="rgba(20,25,38,0.05)"/><circle cx="640" cy="600" r="1.6" fill="rgba(20,25,38,0.05)"/><circle cx="680" cy="600" r="1.6" fill="rgba(20,25,38,0.05)"/><circle cx="720" cy="600" r="1.6" fill="rgba(20,25,38,0.05)"/><circle cx="760" cy="600" r="1.6" fill="rgba(20,25,38,0.05)"/><circle cx="800" cy="600" r="1.6" fill="rgba(20,25,38,0.05)"/><circle cx="840" cy="600" r="1.6" fill="rgba(20,25,38,0.05)"/><circle cx="880" cy="600" r="1.6" fill="rgba(20,25,38,0.05)"/><circle cx="920" cy="600" r="1.6" fill="rgba(20,25,38,0.05)"/><circle cx="960" cy="600" r="1.6" fill="rgba(20,25,38,0.05)"/><circle cx="1000" cy="600" r="1.6" fill="rgba(20,25,38,0.05)"/><circle cx="1040" cy="600" r="1.6" fill="rgba(20,25,38,0.05)"/><circle cx="1080" cy="600" r="1.6" fill="rgba(20,25,38,0.05)"/><circle cx="1120" cy="600" r="1.6" fill="rgba(20,25,38,0.05)"/><circle cx="1160" cy="600" r="1.6" fill="rgba(20,25,38,0.05)"/><circle cx="40" cy="640" r="1.6" fill="rgba(20,25,38,0.05)"/><circle cx="80" cy="640" r="1.6" fill="rgba(20,25,38,0.05)"/><circle cx="120" cy="640" r="1.6" fill="rgba(20,25,38,0.05)"/><circle cx="160" cy="640" r="1.6" fill="rgba(20,25,38,0.05)"/><circle cx="200" cy="640" r="1.6" fill="rgba(20,25,38,0.05)"/><circle cx="240" cy="640" r="1.6" fill="rgba(20,25,38,0.05)"/><circle cx="280" cy="640" r="1.6" fill="rgba(20,25,38,0.05)"/><circle cx="320" cy="640" r="1.6" fill="rgba(20,25,38,0.05)"/><circle cx="360" cy="640" r="1.6" fill="rgba(20,25,38,0.05)"/><circle cx="400" cy="640" r="1.6" fill="rgba(20,25,38,0.05)"/><circle cx="440" cy="640" r="1.6" fill="rgba(20,25,38,0.05)"/><circle cx="480" cy="640" r="1.6" fill="rgba(20,25,38,0.05)"/><circle cx="520" cy="640" r="1.6" fill="rgba(20,25,38,0.05)"/><circle cx="560" cy="640" r="1.6" fill="rgba(20,25,38,0.05)"/><circle cx="600" cy="640" r="1.6" fill="rgba(20,25,38,0.05)"/><circle cx="640" cy="640" r="1.6" fill="rgba(20,25,38,0.05)"/><circle cx="680" cy="640" r="1.6" fill="rgba(20,25,38,0.05)"/><circle cx="720" cy="640" r="1.6" fill="rgba(20,25,38,0.05)"/><circle cx="760" cy="640" r="1.6" fill="rgba(20,25,38,0.05)"/><circle cx="800" cy="640" r="1.6" fill="rgba(20,25,38,0.05)"/><circle cx="840" cy="640" r="1.6" fill="rgba(20,25,38,0.05)"/><circle cx="880" cy="640" r="1.6" fill="rgba(20,25,38,0.05)"/><circle cx="920" cy="640" r="1.6" fill="rgba(20,25,38,0.05)"/><circle cx="960" cy="640" r="1.6" fill="rgba(20,25,38,0.05)"/><circle cx="1000" cy="640" r="1.6" fill="rgba(20,25,38,0.05)"/><circle cx="1040" cy="640" r="1.6" fill="rgba(20,25,38,0.05)"/><circle cx="1080" cy="640" r="1.6" fill="rgba(20,25,38,0.05)"/><circle cx="1120" cy="640" r="1.6" fill="rgba(20,25,38,0.05)"/><circle cx="1160" cy="640" r="1.6" fill="rgba(20,25,38,0.05)"/><circle cx="40" cy="680" r="1.6" fill="rgba(20,25,38,0.05)"/><circle cx="80" cy="680" r="1.6" fill="rgba(20,25,38,0.05)"/><circle cx="120" cy="680" r="1.6" fill="rgba(20,25,38,0.05)"/><circle cx="160" cy="680" r="1.6" fill="rgba(20,25,38,0.05)"/><circle cx="200" cy="680" r="1.6" fill="rgba(20,25,38,0.05)"/><circle cx="240" cy="680" r="1.6" fill="rgba(20,25,38,0.05)"/><circle cx="280" cy="680" r="1.6" fill="rgba(20,25,38,0.05)"/><circle cx="320" cy="680" r="1.6" fill="rgba(20,25,38,0.05)"/><circle cx="360" cy="680" r="1.6" fill="rgba(20,25,38,0.05)"/><circle cx="400" cy="680" r="1.6" fill="rgba(20,25,38,0.05)"/><circle cx="440" cy="680" r="1.6" fill="rgba(20,25,38,0.05)"/><circle cx="480" cy="680" r="1.6" fill="rgba(20,25,38,0.05)"/><circle cx="520" cy="680" r="1.6" fill="rgba(20,25,38,0.05)"/><circle cx="560" cy="680" r="1.6" fill="rgba(20,25,38,0.05)"/><circle cx="600" cy="680" r="1.6" fill="rgba(20,25,38,0.05)"/><circle cx="640" cy="680" r="1.6" fill="rgba(20,25,38,0.05)"/><circle cx="680" cy="680" r="1.6" fill="rgba(20,25,38,0.05)"/><circle cx="720" cy="680" r="1.6" fill="rgba(20,25,38,0.05)"/><circle cx="760" cy="680" r="1.6" fill="rgba(20,25,38,0.05)"/><circle cx="800" cy="680" r="1.6" fill="rgba(20,25,38,0.05)"/><circle cx="840" cy="680" r="1.6" fill="rgba(20,25,38,0.05)"/><circle cx="880" cy="680" r="1.6" fill="rgba(20,25,38,0.05)"/><circle cx="920" cy="680" r="1.6" fill="rgba(20,25,38,0.05)"/><circle cx="960" cy="680" r="1.6" fill="rgba(20,25,38,0.05)"/><circle cx="1000" cy="680" r="1.6" fill="rgba(20,25,38,0.05)"/><circle cx="1040" cy="680" r="1.6" fill="rgba(20,25,38,0.05)"/><circle cx="1080" cy="680" r="1.6" fill="rgba(20,25,38,0.05)"/><circle cx="1120" cy="680" r="1.6" fill="rgba(20,25,38,0.05)"/><circle cx="1160" cy="680" r="1.6" fill="rgba(20,25,38,0.05)"/><circle cx="40" cy="720" r="1.6" fill="rgba(20,25,38,0.05)"/><circle cx="80" cy="720" r="1.6" fill="rgba(20,25,38,0.05)"/><circle cx="120" cy="720" r="1.6" fill="rgba(20,25,38,0.05)"/><circle cx="160" cy="720" r="1.6" fill="rgba(20,25,38,0.05)"/><circle cx="200" cy="720" r="1.6" fill="rgba(20,25,38,0.05)"/><circle cx="240" cy="720" r="1.6" fill="rgba(20,25,38,0.05)"/><circle cx="280" cy="720" r="1.6" fill="rgba(20,25,38,0.05)"/><circle cx="320" cy="720" r="1.6" fill="rgba(20,25,38,0.05)"/><circle cx="360" cy="720" r="1.6" fill="rgba(20,25,38,0.05)"/><circle cx="400" cy="720" r="1.6" fill="rgba(20,25,38,0.05)"/><circle cx="440" cy="720" r="1.6" fill="rgba(20,25,38,0.05)"/><circle cx="480" cy="720" r="1.6" fill="rgba(20,25,38,0.05)"/><circle cx="520" cy="720" r="1.6" fill="rgba(20,25,38,0.05)"/><circle cx="560" cy="720" r="1.6" fill="rgba(20,25,38,0.05)"/><circle cx="600" cy="720" r="1.6" fill="rgba(20,25,38,0.05)"/><circle cx="640" cy="720" r="1.6" fill="rgba(20,25,38,0.05)"/><circle cx="680" cy="720" r="1.6" fill="rgba(20,25,38,0.05)"/><circle cx="720" cy="720" r="1.6" fill="rgba(20,25,38,0.05)"/><circle cx="760" cy="720" r="1.6" fill="rgba(20,25,38,0.05)"/><circle cx="800" cy="720" r="1.6" fill="rgba(20,25,38,0.05)"/><circle cx="840" cy="720" r="1.6" fill="rgba(20,25,38,0.05)"/><circle cx="880" cy="720" r="1.6" fill="rgba(20,25,38,0.05)"/><circle cx="920" cy="720" r="1.6" fill="rgba(20,25,38,0.05)"/><circle cx="960" cy="720" r="1.6" fill="rgba(20,25,38,0.05)"/><circle cx="1000" cy="720" r="1.6" fill="rgba(20,25,38,0.05)"/><circle cx="1040" cy="720" r="1.6" fill="rgba(20,25,38,0.05)"/><circle cx="1080" cy="720" r="1.6" fill="rgba(20,25,38,0.05)"/><circle cx="1120" cy="720" r="1.6" fill="rgba(20,25,38,0.05)"/><circle cx="1160" cy="720" r="1.6" fill="rgba(20,25,38,0.05)"/><circle cx="40" cy="760" r="1.6" fill="rgba(20,25,38,0.05)"/><circle cx="80" cy="760" r="1.6" fill="rgba(20,25,38,0.05)"/><circle cx="120" cy="760" r="1.6" fill="rgba(20,25,38,0.05)"/><circle cx="160" cy="760" r="1.6" fill="rgba(20,25,38,0.05)"/><circle cx="200" cy="760" r="1.6" fill="rgba(20,25,38,0.05)"/><circle cx="240" cy="760" r="1.6" fill="rgba(20,25,38,0.05)"/><circle cx="280" cy="760" r="1.6" fill="rgba(20,25,38,0.05)"/><circle cx="320" cy="760" r="1.6" fill="rgba(20,25,38,0.05)"/><circle cx="360" cy="760" r="1.6" fill="rgba(20,25,38,0.05)"/><circle cx="400" cy="760" r="1.6" fill="rgba(20,25,38,0.05)"/><circle cx="440" cy="760" r="1.6" fill="rgba(20,25,38,0.05)"/><circle cx="480" cy="760" r="1.6" fill="rgba(20,25,38,0.05)"/><circle cx="520" cy="760" r="1.6" fill="rgba(20,25,38,0.05)"/><circle cx="560" cy="760" r="1.6" fill="rgba(20,25,38,0.05)"/><circle cx="600" cy="760" r="1.6" fill="rgba(20,25,38,0.05)"/><circle cx="640" cy="760" r="1.6" fill="rgba(20,25,38,0.05)"/><circle cx="680" cy="760" r="1.6" fill="rgba(20,25,38,0.05)"/><circle cx="720" cy="760" r="1.6" fill="rgba(20,25,38,0.05)"/><circle cx="760" cy="760" r="1.6" fill="rgba(20,25,38,0.05)"/><circle cx="800" cy="760" r="1.6" fill="rgba(20,25,38,0.05)"/><circle cx="840" cy="760" r="1.6" fill="rgba(20,25,38,0.05)"/><circle cx="880" cy="760" r="1.6" fill="rgba(20,25,38,0.05)"/><circle cx="920" cy="760" r="1.6" fill="rgba(20,25,38,0.05)"/><circle cx="960" cy="760" r="1.6" fill="rgba(20,25,38,0.05)"/><circle cx="1000" cy="760" r="1.6" fill="rgba(20,25,38,0.05)"/><circle cx="1040" cy="760" r="1.6" fill="rgba(20,25,38,0.05)"/><circle cx="1080" cy="760" r="1.6" fill="rgba(20,25,38,0.05)"/><circle cx="1120" cy="760" r="1.6" fill="rgba(20,25,38,0.05)"/><circle cx="1160" cy="760" r="1.6" fill="rgba(20,25,38,0.05)"/><circle cx="40" cy="800" r="1.6" fill="rgba(20,25,38,0.05)"/><circle cx="80" cy="800" r="1.6" fill="rgba(20,25,38,0.05)"/><circle cx="120" cy="800" r="1.6" fill="rgba(20,25,38,0.05)"/><circle cx="160" cy="800" r="1.6" fill="rgba(20,25,38,0.05)"/><circle cx="200" cy="800" r="1.6" fill="rgba(20,25,38,0.05)"/><circle cx="240" cy="800" r="1.6" fill="rgba(20,25,38,0.05)"/><circle cx="280" cy="800" r="1.6" fill="rgba(20,25,38,0.05)"/><circle cx="320" cy="800" r="1.6" fill="rgba(20,25,38,0.05)"/><circle cx="360" cy="800" r="1.6" fill="rgba(20,25,38,0.05)"/><circle cx="400" cy="800" r="1.6" fill="rgba(20,25,38,0.05)"/><circle cx="440" cy="800" r="1.6" fill="rgba(20,25,38,0.05)"/><circle cx="480" cy="800" r="1.6" fill="rgba(20,25,38,0.05)"/><circle cx="520" cy="800" r="1.6" fill="rgba(20,25,38,0.05)"/><circle cx="560" cy="800" r="1.6" fill="rgba(20,25,38,0.05)"/><circle cx="600" cy="800" r="1.6" fill="rgba(20,25,38,0.05)"/><circle cx="640" cy="800" r="1.6" fill="rgba(20,25,38,0.05)"/><circle cx="680" cy="800" r="1.6" fill="rgba(20,25,38,0.05)"/><circle cx="720" cy="800" r="1.6" fill="rgba(20,25,38,0.05)"/><circle cx="760" cy="800" r="1.6" fill="rgba(20,25,38,0.05)"/><circle cx="800" cy="800" r="1.6" fill="rgba(20,25,38,0.05)"/><circle cx="840" cy="800" r="1.6" fill="rgba(20,25,38,0.05)"/><circle cx="880" cy="800" r="1.6" fill="rgba(20,25,38,0.05)"/><circle cx="920" cy="800" r="1.6" fill="rgba(20,25,38,0.05)"/><circle cx="960" cy="800" r="1.6" fill="rgba(20,25,38,0.05)"/><circle cx="1000" cy="800" r="1.6" fill="rgba(20,25,38,0.05)"/><circle cx="1040" cy="800" r="1.6" fill="rgba(20,25,38,0.05)"/><circle cx="1080" cy="800" r="1.6" fill="rgba(20,25,38,0.05)"/><circle cx="1120" cy="800" r="1.6" fill="rgba(20,25,38,0.05)"/><circle cx="1160" cy="800" r="1.6" fill="rgba(20,25,38,0.05)"/><circle cx="40" cy="840" r="1.6" fill="rgba(20,25,38,0.05)"/><circle cx="80" cy="840" r="1.6" fill="rgba(20,25,38,0.05)"/><circle cx="120" cy="840" r="1.6" fill="rgba(20,25,38,0.05)"/><circle cx="160" cy="840" r="1.6" fill="rgba(20,25,38,0.05)"/><circle cx="200" cy="840" r="1.6" fill="rgba(20,25,38,0.05)"/><circle cx="240" cy="840" r="1.6" fill="rgba(20,25,38,0.05)"/><circle cx="280" cy="840" r="1.6" fill="rgba(20,25,38,0.05)"/><circle cx="320" cy="840" r="1.6" fill="rgba(20,25,38,0.05)"/><circle cx="360" cy="840" r="1.6" fill="rgba(20,25,38,0.05)"/><circle cx="400" cy="840" r="1.6" fill="rgba(20,25,38,0.05)"/><circle cx="440" cy="840" r="1.6" fill="rgba(20,25,38,0.05)"/><circle cx="480" cy="840" r="1.6" fill="rgba(20,25,38,0.05)"/><circle cx="520" cy="840" r="1.6" fill="rgba(20,25,38,0.05)"/><circle cx="560" cy="840" r="1.6" fill="rgba(20,25,38,0.05)"/><circle cx="600" cy="840" r="1.6" fill="rgba(20,25,38,0.05)"/><circle cx="640" cy="840" r="1.6" fill="rgba(20,25,38,0.05)"/><circle cx="680" cy="840" r="1.6" fill="rgba(20,25,38,0.05)"/><circle cx="720" cy="840" r="1.6" fill="rgba(20,25,38,0.05)"/><circle cx="760" cy="840" r="1.6" fill="rgba(20,25,38,0.05)"/><circle cx="800" cy="840" r="1.6" fill="rgba(20,25,38,0.05)"/><circle cx="840" cy="840" r="1.6" fill="rgba(20,25,38,0.05)"/><circle cx="880" cy="840" r="1.6" fill="rgba(20,25,38,0.05)"/><circle cx="920" cy="840" r="1.6" fill="rgba(20,25,38,0.05)"/><circle cx="960" cy="840" r="1.6" fill="rgba(20,25,38,0.05)"/><circle cx="1000" cy="840" r="1.6" fill="rgba(20,25,38,0.05)"/><circle cx="1040" cy="840" r="1.6" fill="rgba(20,25,38,0.05)"/><circle cx="1080" cy="840" r="1.6" fill="rgba(20,25,38,0.05)"/><circle cx="1120" cy="840" r="1.6" fill="rgba(20,25,38,0.05)"/><circle cx="1160" cy="840" r="1.6" fill="rgba(20,25,38,0.05)"/><rect x="48" y="48" width="1104" height="76" rx="16" fill="#141926" stroke="rgba(20,25,38,0.1)" stroke-width="1.5" /><circle cx="88" cy="86" r="6" fill="#FF7A45"/><rect x="106" y="80" width="120" height="12" rx="6.0" fill="rgba(20,25,38,0.22)"/><circle cx="288" cy="86" r="6" fill="#E8C15A"/><rect x="306" y="80" width="90" height="12" rx="6.0" fill="rgba(20,25,38,0.22)"/><circle cx="438" cy="86" r="6" fill="#161B27"/><rect x="456" y="80" width="104" height="12" rx="6.0" fill="rgba(20,25,38,0.22)"/><rect x="980" y="76" width="132" height="24" rx="12" fill="rgba(255,122,69,0.25)"/><rect x="48" y="156" width="724" height="420" rx="20" fill="#141926" stroke="rgba(20,25,38,0.1)" stroke-width="1.5" /><rect x="84" y="192" width="170" height="12" rx="6.0" fill="rgba(20,25,38,0.22)"/><rect x="84" y="216" width="110" height="9" rx="4.5" fill="rgba(20,25,38,0.12)"/><line x1="84" y1="280" x2="736" y2="280" stroke="rgba(20,25,38,0.07)" stroke-width="1"/><line x1="84" y1="340" x2="736" y2="340" stroke="rgba(20,25,38,0.07)" stroke-width="1"/><line x1="84" y1="400" x2="736" y2="400" stroke="rgba(20,25,38,0.07)" stroke-width="1"/><line x1="84" y1="460" x2="736" y2="460" stroke="rgba(20,25,38,0.07)" stroke-width="1"/><line x1="84" y1="520" x2="736" y2="520" stroke="rgba(20,25,38,0.07)" stroke-width="1"/><path d="M84 400 Q113.5 348 143.0 400 T202 400 Q231.5 348 261.0 400 T320 400 Q349.5 348 379.0 400 T438 400 Q467.5 348 497.0 400 T556 400 Q585.5 348 615.0 400 T674 400" fill="none" stroke="#FF7A45" stroke-width="4" opacity="1.0" stroke-linecap="round"/><path d="M84 430 Q102.5 406 121.0 430 T158 430 Q176.5 406 195.0 430 T232 430 Q250.5 406 269.0 430 T306 430 Q324.5 406 343.0 430 T380 430 Q398.5 406 417.0 430 T454 430 Q472.5 406 491.0 430 T528 430 Q546.5 406 565.0 430 T602 430 Q620.5 406 639.0 430 T676 430" fill="none" stroke="#E8C15A" stroke-width="2.5" opacity="0.7" stroke-linecap="round"/><circle cx="555" cy="348" r="7" fill="#161B27"/><rect x="500" y="288" width="128" height="40" rx="10" fill="#E9E6DC" stroke="#FF7A45" stroke-width="1.5" /><rect x="516" y="302" width="96" height="12" rx="6.0" fill="rgba(255,122,69,0.8)"/><rect x="796" y="156" width="356" height="420" rx="20" fill="#141926" stroke="rgba(20,25,38,0.1)" stroke-width="1.5" /><rect x="828" y="192" width="140" height="12" rx="6.0" fill="rgba(20,25,38,0.22)"/><rect x="828" y="236" width="292" height="48" rx="12" fill="#1D2433" stroke="rgba(20,25,38,0.08)" stroke-width="1.5" /><circle cx="854" cy="260" r="6" fill="#FF7A45"/><rect x="872" y="254" width="150" height="10" rx="5.0" fill="rgba(20,25,38,0.22)"/><rect x="1058" y="254" width="40" height="10" rx="5.0" fill="rgba(20,25,38,0.14)"/><rect x="828" y="300" width="292" height="48" rx="12" fill="#1D2433" stroke="rgba(20,25,38,0.08)" stroke-width="1.5" /><circle cx="854" cy="324" r="6" fill="#FF7A45"/><rect x="872" y="318" width="138" height="10" rx="5.0" fill="rgba(20,25,38,0.22)"/><rect x="1058" y="318" width="40" height="10" rx="5.0" fill="rgba(20,25,38,0.14)"/><rect x="828" y="364" width="292" height="48" rx="12" fill="#1D2433" stroke="rgba(20,25,38,0.08)" stroke-width="1.5" /><circle cx="854" cy="388" r="6" fill="#E8C15A"/><rect x="872" y="382" width="126" height="10" rx="5.0" fill="rgba(20,25,38,0.22)"/><rect x="1058" y="382" width="40" height="10" rx="5.0" fill="rgba(20,25,38,0.14)"/><rect x="828" y="428" width="292" height="48" rx="12" fill="#1D2433" stroke="rgba(20,25,38,0.08)" stroke-width="1.5" /><circle cx="854" cy="452" r="6" fill="#FF7A45"/><rect x="872" y="446" width="114" height="10" rx="5.0" fill="rgba(20,25,38,0.22)"/><rect x="1058" y="446" width="40" height="10" rx="5.0" fill="rgba(20,25,38,0.14)"/><rect x="828" y="492" width="292" height="48" rx="12" fill="#1D2433" stroke="rgba(20,25,38,0.08)" stroke-width="1.5" /><circle cx="854" cy="516" r="6" fill="rgba(20,25,38,0.3)"/><rect x="872" y="510" width="102" height="10" rx="5.0" fill="rgba(20,25,38,0.22)"/><rect x="1058" y="510" width="40" height="10" rx="5.0" fill="rgba(20,25,38,0.14)"/><rect x="48" y="608" width="1104" height="244" rx="20" fill="#141926" stroke="rgba(20,25,38,0.1)" stroke-width="1.5" /><rect x="84" y="640" width="190" height="12" rx="6.0" fill="rgba(20,25,38,0.22)"/><rect x="84" y="676" width="62" height="40" rx="6" fill="rgba(20,25,38,0.1)"/><rect x="158" y="676" width="62" height="40" rx="6" fill="rgba(20,25,38,0.1)"/><rect x="232" y="676" width="62" height="40" rx="6" fill="rgba(255,122,69,0.55)"/><rect x="306" y="676" width="62" height="40" rx="6" fill="rgba(20,25,38,0.1)"/><rect x="380" y="676" width="62" height="40" rx="6" fill="rgba(20,25,38,0.1)"/><rect x="454" y="676" width="62" height="40" rx="6" fill="rgba(232,193,90,0.55)"/><rect x="528" y="676" width="62" height="40" rx="6" fill="rgba(20,25,38,0.1)"/><rect x="602" y="676" width="62" height="40" rx="6" fill="rgba(20,25,38,0.1)"/><rect x="676" y="676" width="62" height="40" rx="6" fill="rgba(20,25,38,0.1)"/><rect x="750" y="676" width="62" height="40" rx="6" fill="rgba(255,122,69,0.55)"/><rect x="824" y="676" width="62" height="40" rx="6" fill="rgba(20,25,38,0.1)"/><rect x="898" y="676" width="62" height="40" rx="6" fill="rgba(20,25,38,0.1)"/><rect x="972" y="676" width="62" height="40" rx="6" fill="rgba(20,25,38,0.1)"/><rect x="1046" y="676" width="62" height="40" rx="6" fill="rgba(20,25,38,0.1)"/><rect x="84" y="728" width="62" height="40" rx="6" fill="rgba(20,25,38,0.1)"/><rect x="158" y="728" width="62" height="40" rx="6" fill="rgba(20,25,38,0.1)"/><rect x="232" y="728" width="62" height="40" rx="6" fill="rgba(255,122,69,0.55)"/><rect x="306" y="728" width="62" height="40" rx="6" fill="rgba(20,25,38,0.1)"/><rect x="380" y="728" width="62" height="40" rx="6" fill="rgba(20,25,38,0.1)"/><rect x="454" y="728" width="62" height="40" rx="6" fill="rgba(20,25,38,0.1)"/><rect x="528" y="728" width="62" height="40" rx="6" fill="rgba(20,25,38,0.1)"/><rect x="602" y="728" width="62" height="40" rx="6" fill="rgba(20,25,38,0.1)"/><rect x="676" y="728" width="62" height="40" rx="6" fill="rgba(20,25,38,0.1)"/><rect x="750" y="728" width="62" height="40" rx="6" fill="rgba(255,122,69,0.55)"/><rect x="824" y="728" width="62" height="40" rx="6" fill="rgba(20,25,38,0.1)"/><rect x="898" y="728" width="62" height="40" rx="6" fill="rgba(20,25,38,0.1)"/><rect x="972" y="728" width="62" height="40" rx="6" fill="rgba(20,25,38,0.1)"/><rect x="1046" y="728" width="62" height="40" rx="6" fill="rgba(232,193,90,0.55)"/><rect x="84" y="780" width="62" height="40" rx="6" fill="rgba(20,25,38,0.1)"/><rect x="158" y="780" width="62" height="40" rx="6" fill="rgba(20,25,38,0.1)"/><rect x="232" y="780" width="62" height="40" rx="6" fill="rgba(255,122,69,0.55)"/><rect x="306" y="780" width="62" height="40" rx="6" fill="rgba(20,25,38,0.1)"/><rect x="380" y="780" width="62" height="40" rx="6" fill="rgba(20,25,38,0.1)"/><rect x="454" y="780" width="62" height="40" rx="6" fill="rgba(20,25,38,0.1)"/><rect x="528" y="780" width="62" height="40" rx="6" fill="rgba(20,25,38,0.1)"/><rect x="602" y="780" width="62" height="40" rx="6" fill="rgba(20,25,38,0.1)"/><rect x="676" y="780" width="62" height="40" rx="6" fill="rgba(20,25,38,0.1)"/><rect x="750" y="780" width="62" height="40" rx="6" fill="rgba(255,122,69,0.55)"/><rect x="824" y="780" width="62" height="40" rx="6" fill="rgba(232,193,90,0.55)"/><rect x="898" y="780" width="62" height="40" rx="6" fill="rgba(20,25,38,0.1)"/><rect x="972" y="780" width="62" height="40" rx="6" fill="rgba(20,25,38,0.1)"/><rect x="1046" y="780" width="62" height="40" rx="6" fill="rgba(20,25,38,0.1)"/></svg>
