<svg xmlns="http://www.w3.org/2000/svg" viewBox="0 0 1920 1080" width="1920" height="1080" preserveAspectRatio="xMidYMid slice" role="img" aria-hidden="true"><defs><linearGradient id="wsky" x1="0" y1="0" x2="0" y2="1"><stop offset="0" stop-color="#101426"/><stop offset="0.7" stop-color="#232048"/><stop offset="1" stop-color="#3A2A55"/></linearGradient><radialGradient id="wgl" cx="0.5" cy="0.5" r="0.5"><stop offset="0" stop-color="#FF9E80" stop-opacity="0.5"/><stop offset="1" stop-color="#FF9E80" stop-opacity="0"/></radialGradient><linearGradient id="scr" x1="0" y1="0" x2="0" y2="1"><stop offset="0" stop-color="#FFD1B0"/><stop offset="0.5" stop-color="#FF9E80"/><stop offset="1" stop-color="#B9A8FF"/></linearGradient></defs><rect width="1920" height="1080" fill="url(#wsky)"/><circle cx="1897" cy="658" r="1.8" fill="#F5F2EC" opacity="0.32"/><circle cx="925" cy="34" r="1.2" fill="#F5F2EC" opacity="0.36"/><circle cx="1750" cy="282" r="1.5" fill="#F5F2EC" opacity="0.43"/><circle cx="1841" cy="408" r="1.1" fill="#F5F2EC" opacity="0.72"/><circle cx="1061" cy="176" r="1.0" fill="#F5F2EC" opacity="0.33"/><circle cx="190" cy="201" r="1.6" fill="#F5F2EC" opacity="0.66"/><circle cx="1557" cy="414" r="2.1" fill="#F5F2EC" opacity="0.53"/><circle cx="1803" cy="635" r="0.9" fill="#F5F2EC" opacity="0.75"/><circle cx="1855" cy="417" r="2.0" fill="#F5F2EC" opacity="0.49"/><circle cx="1824" cy="46" r="1.1" fill="#F5F2EC" opacity="0.50"/><circle cx="1566" cy="193" r="1.1" fill="#F5F2EC" opacity="0.59"/><circle cx="1203" cy="366" r="1.5" fill="#F5F2EC" opacity="0.34"/><circle cx="1740" cy="485" r="1.5" fill="#F5F2EC" opacity="0.75"/><circle cx="1687" cy="605" r="1.7" fill="#F5F2EC" opacity="0.46"/><circle cx="767" cy="327" r="0.9" fill="#F5F2EC" opacity="0.62"/><circle cx="790" cy="76" r="1.1" fill="#F5F2EC" opacity="0.44"/><circle cx="655" cy="287" r="0.8" fill="#F5F2EC" opacity="0.61"/><circle cx="906" cy="392" r="1.9" fill="#F5F2EC" opacity="0.42"/><circle cx="1142" cy="381" r="1.5" fill="#F5F2EC" opacity="0.73"/><circle cx="1402" cy="558" r="1.4" fill="#F5F2EC" opacity="0.58"/><circle cx="381" cy="190" r="1.5" fill="#F5F2EC" opacity="0.38"/><circle cx="1148" cy="444" r="1.1" fill="#F5F2EC" opacity="0.58"/><circle cx="1183" cy="167" r="1.0" fill="#F5F2EC" opacity="0.50"/><circle cx="1622" cy="419" r="2.1" fill="#F5F2EC" opacity="0.45"/><circle cx="419" cy="686" r="1.8" fill="#F5F2EC" opacity="0.26"/><circle cx="1013" cy="454" r="1.5" fill="#F5F2EC" opacity="0.74"/><circle cx="142" cy="280" r="1.9" fill="#F5F2EC" opacity="0.43"/><circle cx="1255" cy="214" r="1.5" fill="#F5F2EC" opacity="0.43"/><circle cx="220" cy="101" r="1.5" fill="#F5F2EC" opacity="0.58"/><circle cx="842" cy="3" r="2.1" fill="#F5F2EC" opacity="0.25"/><circle cx="1078" cy="27" r="2.0" fill="#F5F2EC" opacity="0.60"/><circle cx="46" cy="373" r="1.2" fill="#F5F2EC" opacity="0.76"/><circle cx="320" cy="586" r="1.7" fill="#F5F2EC" opacity="0.68"/><circle cx="980" cy="699" r="1.8" fill="#F5F2EC" opacity="0.47"/><circle cx="1260" cy="134" r="1.7" fill="#F5F2EC" opacity="0.65"/><circle cx="177" cy="609" r="1.4" fill="#F5F2EC" opacity="0.43"/><circle cx="1019" cy="628" r="1.8" fill="#F5F2EC" opacity="0.51"/><circle cx="1464" cy="669" r="1.6" fill="#F5F2EC" opacity="0.73"/><circle cx="931" cy="295" r="1.5" fill="#F5F2EC" opacity="0.71"/><circle cx="1826" cy="508" r="1.1" fill="#F5F2EC" opacity="0.65"/><circle cx="1467" cy="245" r="2.1" fill="#F5F2EC" opacity="0.40"/><circle cx="808" cy="99" r="1.8" fill="#F5F2EC" opacity="0.34"/><circle cx="1388" cy="41" r="1.2" fill="#F5F2EC" opacity="0.46"/><circle cx="1572" cy="396" r="2.1" fill="#F5F2EC" opacity="0.55"/><circle cx="1454" cy="61" r="1.2" fill="#F5F2EC" opacity="0.38"/><circle cx="1641" cy="477" r="1.4" fill="#F5F2EC" opacity="0.56"/><circle cx="35" cy="71" r="1.5" fill="#F5F2EC" opacity="0.51"/><circle cx="1241" cy="556" r="1.6" fill="#F5F2EC" opacity="0.42"/><circle cx="179" cy="226" r="1.5" fill="#F5F2EC" opacity="0.52"/><circle cx="191" cy="111" r="1.7" fill="#F5F2EC" opacity="0.69"/><circle cx="1776" cy="458" r="0.9" fill="#F5F2EC" opacity="0.47"/><circle cx="868" cy="120" r="1.1" fill="#F5F2EC" opacity="0.41"/><circle cx="271" cy="233" r="1.7" fill="#F5F2EC" opacity="0.43"/><circle cx="459" cy="48" r="2.0" fill="#F5F2EC" opacity="0.65"/><circle cx="88" cy="460" r="1.1" fill="#F5F2EC" opacity="0.41"/><circle cx="399" cy="487" r="2.0" fill="#F5F2EC" opacity="0.30"/><circle cx="1602" cy="153" r="1.0" fill="#F5F2EC" opacity="0.69"/><circle cx="303" cy="27" r="1.2" fill="#F5F2EC" opacity="0.72"/><circle cx="1493" cy="507" r="1.6" fill="#F5F2EC" opacity="0.68"/><circle cx="959" cy="608" r="2.1" fill="#F5F2EC" opacity="0.52"/><circle cx="1515" cy="468" r="1.4" fill="#F5F2EC" opacity="0.53"/><circle cx="36" cy="353" r="1.6" fill="#F5F2EC" opacity="0.47"/><circle cx="1713" cy="35" r="0.8" fill="#F5F2EC" opacity="0.35"/><circle cx="1736" cy="350" r="1.4" fill="#F5F2EC" opacity="0.65"/><circle cx="1462" cy="292" r="1.5" fill="#F5F2EC" opacity="0.70"/><circle cx="959" cy="650" r="1.1" fill="#F5F2EC" opacity="0.53"/><circle cx="1820" cy="213" r="1.6" fill="#F5F2EC" opacity="0.39"/><circle cx="204" cy="496" r="1.6" fill="#F5F2EC" opacity="0.46"/><circle cx="1527" cy="154" r="1.7" fill="#F5F2EC" opacity="0.72"/><circle cx="1370" cy="88" r="1.6" fill="#F5F2EC" opacity="0.67"/><circle cx="293" cy="154" r="1.6" fill="#F5F2EC" opacity="0.36"/><circle cx="1699" cy="566" r="1.3" fill="#F5F2EC" opacity="0.59"/><circle cx="1789" cy="190" r="2.0" fill="#F5F2EC" opacity="0.68"/><circle cx="595" cy="169" r="1.5" fill="#F5F2EC" opacity="0.58"/><circle cx="811" cy="530" r="1.9" fill="#F5F2EC" opacity="0.52"/><circle cx="387" cy="263" r="1.2" fill="#F5F2EC" opacity="0.42"/><circle cx="51" cy="675" r="1.4" fill="#F5F2EC" opacity="0.60"/><circle cx="1743" cy="371" r="2.0" fill="#F5F2EC" opacity="0.44"/><circle cx="1647" cy="406" r="1.9" fill="#F5F2EC" opacity="0.55"/><circle cx="756" cy="232" r="1.8" fill="#F5F2EC" opacity="0.39"/><circle cx="588" cy="130" r="1.3" fill="#F5F2EC" opacity="0.69"/><circle cx="1854" cy="149" r="1.2" fill="#F5F2EC" opacity="0.55"/><circle cx="958" cy="541" r="1.7" fill="#F5F2EC" opacity="0.48"/><circle cx="1281" cy="321" r="1.7" fill="#F5F2EC" opacity="0.71"/><circle cx="432" cy="447" r="1.0" fill="#F5F2EC" opacity="0.77"/><circle cx="210" cy="619" r="2.1" fill="#F5F2EC" opacity="0.27"/><circle cx="774" cy="16" r="2.0" fill="#F5F2EC" opacity="0.44"/><circle cx="918" cy="656" r="1.6" fill="#F5F2EC" opacity="0.31"/><circle cx="828" cy="250" r="1.1" fill="#F5F2EC" opacity="0.31"/><circle cx="484" cy="296" r="1.9" fill="#F5F2EC" opacity="0.65"/><ellipse cx="960" cy="470" rx="640" ry="360" fill="url(#wgl)"/><g transform="rotate(-4 960 430)"><rect x="520" y="200" width="880" height="500" rx="26" fill="#0E1523" stroke="#4A4370" stroke-width="6"/><rect x="548" y="252" width="824" height="420" rx="14" fill="url(#scr)"/><circle cx="566" cy="227" r="7" fill="#FF7A6B"/><circle cx="592" cy="227" r="7" fill="#F2C879"/><circle cx="618" cy="227" r="7" fill="#57D0A5"/><rect x="600" y="320" width="420" height="44" rx="12" fill="#141B2C" opacity="0.85"/><rect x="600" y="392" width="300" height="20" rx="10" fill="#141B2C" opacity="0.6"/><rect x="600" y="560" width="170" height="52" rx="26" fill="#141B2C"/></g><rect y="960" width="1920" height="120" fill="#0A0E18"/><circle cx="760" cy="862.6" r="18.7" fill="#0A0E18"/><path d="M743.0 968 L746.4 917.0 L741.3 879.6 Q760 869.4 778.7 879.6 L773.6 917.0 L777.0 968 L766.8 968 L763.4 927.2 L756.6 927.2 L753.2 968 Z" fill="#0A0E18"/><circle cx="1140" cy="880.1" r="15.95" fill="#0A0E18"/><path d="M1125.5 970 L1128.4 926.5 L1124.05 894.6 Q1140 885.9 1155.95 894.6 L1151.6 926.5 L1154.5 970 L1145.8 970 L1142.9 935.2 L1137.1 935.2 L1134.2 970 Z" fill="#0A0E18"/></svg>
